<svg xmlns="http://www.w3.org/2000/svg" xmlns:xlink="http://www.w3.org/1999/xlink" width="762.433" height="606.136" viewBox="0 0 762.433 606.136"><defs><style>.a,.b{fill:#6c63ff;}.a,.f,.q,.r{opacity:0.1;}.c{fill:#492583;}.d{fill:#444053;}.e{fill:#d5d6db;}.g,.i{fill:#fff;}.g{opacity:0.3;}.h{fill:#3a3768;}.i{opacity:0.45;}.j{fill:url(#a);}.k{fill:#be6f72;}.l{fill:#3e373a;}.m{fill:#4b4b5b;}.n{opacity:0.02;}.o{fill:#e7c7ca;}.p{fill:#c3c7d9;}.r{fill:none;stroke:#000;stroke-miterlimit:10;}.s{fill:#ffd037;}.t{fill:#65617d;}.u{fill:#9d9cb5;}</style><linearGradient id="a" x1="0.5" y1="1" x2="0.5" gradientUnits="objectBoundingBox"><stop offset="0" stop-color="gray" stop-opacity="0.251"/><stop offset="0.54" stop-color="gray" stop-opacity="0.122"/><stop offset="1" stop-color="gray" stop-opacity="0.102"/></linearGradient></defs><g transform="translate(0 -0.008)"><path class="a" d="M539.107,152.478c-48.243-1.677-94.2-17.249-138.072-34.289S313.7,82.268,266.616,73.241c-30.286-5.807-64.925-6.627-89.322,9.608-23.488,15.654-31.076,42.6-35.153,67.631-3.071,18.829-4.875,38.642,3.541,56.271,5.837,12.24,16.205,22.526,23.368,34.289,24.949,40.789,7.32,91.089-19.716,130.916-12.672,18.687-27.394,36.525-37.173,56.4s-14.312,42.674-5.755,62.964c8.49,20.126,28.713,35.213,50.613,45.835,44.493,21.58,96.9,27.752,148.045,31.247,113.175,7.745,226.946,4.391,340.42,1.036,42-1.245,84.171-2.5,125.482-9,22.944-3.608,46.625-9.325,63.285-23.145,21.14-17.539,26.38-47.244,12.217-69.233-23.771-36.89-89.449-46.051-106.086-85.647-9.139-21.788.253-46.059,13.536-66.274,28.5-43.353,76.277-81.391,78.8-130.945,1.729-34.043-21.244-68.123-56.755-84.231-37.218-16.943-88.845-14.8-116.291,13.149C631.388,142.907,581.7,153.954,539.107,152.478Z" transform="translate(-91.968 -50.042)"/><path class="b" d="M339.649,616.052,84.511,614.807,59.16,555.346l89.643-6.507-15.624-65.193,177.3-22.981L140.7,401.643l15-3.563L428.7,442.618l-15.035,101.74-21.49,55.913Z" transform="translate(-15.062 -101.347)"/><path class="b" d="M187,698.757s15.654-2.5,25.046,8.557c0,0-6.888,5.427-21.706-2.087Z" transform="translate(-113.637 -210.201)"/><path class="b" d="M182.6,698.51s-9.988,12.292-5.069,25.977c0,0,8.14-3.257,9.027-19.85Z" transform="translate(-110.881 -210.2)"/><path class="b" d="M172.76,670.042s6.261-11.487,31.307,4.592c0,0-3.339,7.722-14.4,7.1S175.682,676.095,172.76,670.042Z" transform="translate(-110.012 -201.94)"/><path class="b" d="M165.722,670.286s-12.992-1.491-14.252,28.251c0,0,8.237,1.707,14.088-7.7S169.009,676.152,165.722,670.286Z" transform="translate(-104.591 -203.011)"/><path class="c" d="M160.44,634.7s7.3-20.245,33.812-5.844c0,0-6.053,18.576-31.1,12.732Z" transform="translate(-106.875 -191.149)"/><path class="c" d="M149.52,594.6s13.775-20.454,38.195-1.491c0,0-8.557,19.2-36.107,8.766Z" transform="translate(-104.095 -181.314)"/><path class="c" d="M145.6,556.367s16.071-18.792,40.252,0c0,0-15.236,16.488-40.252,4.8Z" transform="translate(-103.097 -171.885)"/><path class="c" d="M142.24,518.6s16.28-19.619,39.447-1.044c0,0-18.367,17.323-39.447,5.635Z" transform="translate(-102.242 -162.096)"/><path class="c" d="M144.2,483.558s17.144-25.254,38.821-8.14c0,0-18.367,21.706-38.821,12.94Z" transform="translate(-102.741 -151.888)"/><path class="c" d="M149.52,444.98s18.158-25.046,39.238-5.844c0,0-21.5,21.706-39.238,10.436Z" transform="translate(-104.095 -142.321)"/><path class="c" d="M157.319,409.069s21.5-23.54,40.252-14.163c0,0-22.4,25-41.191,20.409Z" transform="translate(-105.841 -132.342)"/><path class="c" d="M167.119,374.449s24.807-28.832,39.238-19.2c0,0-18.277,22.362-41,24.6Z" transform="translate(-108.128 -122.306)"/><path class="c" d="M181.275,337.068s21.714-23.54,37.576-17.7c0,0-18.576,24.419-40.49,25.046Z" transform="translate(-111.437 -113.436)"/><path class="c" d="M195.084,301.146s24-22.541,34.438-18.576c0,0-17.323,25.046-35.481,23.585Z" transform="translate(-115.429 -104.185)"/><path class="c" d="M208.32,266.085s20.663-26.932,31.941-24.844c0,0-12.53,24.01-31.941,27.58Z" transform="translate(-119.065 -93.753)"/><path class="c" d="M222.043,223.026s18.262-20.64,28.132-20.6c0,0-14.416,27.58-28.884,27.327Z" transform="translate(-122.367 -83.901)"/><path class="c" d="M229.814,185.715l17.644-43s.88,38.865-19.887,50.971Z" transform="translate(-123.966 -68.699)"/><path class="c" d="M240.149,123.528s2.922-35.906,1.044-38.828c0,0,12.612,29.854-1.163,54.69Z" transform="translate(-127.138 -53.928)"/><path class="c" d="M149.227,637.037s-18.292-11.338-30.137,16.4c0,0,16.28,10.808,32.291-9.325Z" transform="translate(-96.348 -193.965)"/><path class="c" d="M137.35,595.711s-22.437-10.234-33.32,18.725c0,0,17.331,11.927,35.362-11.4Z" transform="translate(-92.513 -183.581)"/><path class="c" d="M130.452,558.677s-16.071-18.792-40.252,0c0,0,15.236,16.488,40.252,4.8Z" transform="translate(-88.992 -172.473)"/><path class="c" d="M128.027,518.6s-16.28-19.619-39.447-1.044c0,0,18.367,17.323,39.447,5.635Z" transform="translate(-88.58 -162.096)"/><path class="c" d="M131.822,482.785S120.4,454.5,95.58,466.662c0,0,13.417,25.083,35.228,20.819Z" transform="translate(-90.362 -150.399)"/><path class="c" d="M138.975,442.782S127.622,414,102.45,427.344c0,0,15.415,26.38,35.407,19.88Z" transform="translate(-92.111 -140.264)"/><path class="c" d="M152.234,403.108s-4.472-31.553-25.344-34.378c0,0,4.428,33.275,22.534,40.066Z" transform="translate(-98.334 -126.24)"/><path class="c" d="M161.94,368.323s-1.744-38.016-19-39.343c0,0,.581,28.855,17.055,44.724Z" transform="translate(-102.42 -116.12)"/><path class="c" d="M177.287,329.884s-5.143-31.613-21.617-35.474c0,0,2.042,30.614,19.984,43.234Z" transform="translate(-105.661 -107.319)"/><path class="c" d="M194.075,295.1s-.171-32.932-10.234-37.77c0,0-6.239,29.816,7.32,41.974Z" transform="translate(-112.468 -97.878)"/><path class="c" d="M205.169,260.9s-1.409-33.909-11.83-38.687c0,0-3.563,26.835,10.272,40.908Z" transform="translate(-115.146 -88.937)"/><path class="c" d="M220.859,222.06s-.06-27.58-7.5-34.05c0,0-7.394,30.211,3.615,39.6Z" transform="translate(-119.73 -80.23)"/><path class="c" d="M225.993,182.9,218.755,137s-9.832,37.613,7.581,54.191Z" transform="translate(-121.018 -67.243)"/><path class="c" d="M225.083,125.659s-18.576-30.86-18.2-34.289c0,0,1.975,32.343,25.344,48.451Z" transform="translate(-118.699 -55.626)"/><path class="c" d="M225.523,108.958S207.991,65.128,200.06,61.58c0,0,25.046,12.732,26.924,46.126Z" transform="translate(-116.962 -48.041)"/><path class="d" d="M220.76,209.383l-1.2-.365c14.8-48.25,18.486-79.013,10.4-86.728l.857-.909C239.4,129.52,235.914,159.947,220.76,209.383Z" transform="translate(-121.927 -63.266)"/><path class="d" d="M165.9,351.21l-1.774-.634c1.573-4.42,3.265-8.908,5.039-13.328,15.445-38.493,28.594-74.3,37.024-101.793l1.543-.745c-8.445,27.543-21.363,64.724-36.823,103.269C169.147,342.317,167.462,346.782,165.9,351.21Z" transform="translate(-107.815 -92.119)"/><path class="d" d="M197.051,655.142c-.239-.261-24.218-27.267-40.938-73.37a271.462,271.462,0,0,1-16.153-84.067c-1.148-35.876,6.381-75.935,19.276-112.325l1.4,1.64c-28.952,81.674-17.45,151.66-2.191,193.806,16.541,45.686,40.252,72.394,40.483,72.662Z" transform="translate(-101.632 -130.479)"/><path class="e" d="M665.581,670.36s-16.9,20.625-3.481,51.806L527.181,780.68l-12.948,2.713L508.27,757.3l3.988-32.925V706.385Z" transform="translate(-195.431 -203.033)"/><path class="b" d="M59.16,597.433,245.9,563.39l247.438,39.417L339.649,658.139Z" transform="translate(-15.062 -143.434)"/><path class="b" d="M59.16,597.433,245.9,563.39l247.438,39.417L339.649,658.139Z" transform="translate(-15.062 -143.434)"/><path class="b" d="M145.339,652.47S127.874,685.559,148,716.12l276.918,60.005s-17.189-26.357.887-62.942Z" transform="translate(-101.241 -198.479)"/><path class="f" d="M145.339,652.47S127.874,685.559,148,716.12l276.918,60.005s-17.189-26.357.887-62.942Z" transform="translate(-101.241 -198.479)"/><path class="f" d="M157.295,667.86s-9.981,24.211,0,39.879" transform="translate(-104.945 -202.397)"/><path class="b" d="M428.228,795.828l154.6-65.968s8.647,1.864,3.056,8.2-154.672,64.1-154.672,64.1l-279.9-66.341Z" transform="translate(-104.551 -218.182)"/><path class="f" d="M428.228,795.828l154.6-65.968s8.647,1.864,3.056,8.2-154.672,64.1-154.672,64.1l-279.9-66.341Z" transform="translate(-104.551 -218.182)"/><path class="f" d="M503.547,742.86s-14.908,17.89,0,44.724" transform="translate(-192.541 -221.491)"/><rect class="f" width="70.493" height="0.745" transform="translate(316.313 543.374) rotate(-18.45)"/><rect class="f" width="85.893" height="0.745" transform="translate(316.288 549.376) rotate(-20.82)"/><rect class="f" width="99.556" height="0.745" transform="translate(316.737 556.45) rotate(-22.26)"/><rect class="f" width="114.599" height="0.745" transform="translate(317.812 562.688) rotate(-24.31)"/><rect class="f" width="125.34" height="0.745" transform="matrix(0.916, -0.401, 0.401, 0.916, 318.64, 565.723)"/><rect class="f" width="149.991" height="0.745" transform="translate(320.374 570.821) rotate(-23.36)"/><path class="g" d="M152.23,604.52l131.191-27.58,79.922,15.281-107.5,34.661Z" transform="translate(-38.757 -146.884)"/><path class="b" d="M677.71,659.69s6.783,2.736,2.8,6.962S524,715.021,524,715.021Z" transform="translate(-199.435 -200.317)"/><path class="e" d="M764.873,574.18S747.982,594.8,761.4,625.986L626.481,684.5l-12.948,2.728-5.963-26.089,4.048-32.917V610.205Z" transform="translate(-220.712 -178.546)"/><path class="h" d="M158.46,501.245,345.192,467.21l247.445,39.417L438.949,561.959Z" transform="translate(-40.343 -118.947)"/><path class="h" d="M244.6,556.29s-17.472,33.089,2.654,63.65l276.918,60.005s-17.182-26.38.917-62.95Z" transform="translate(-126.51 -173.992)"/><path class="f" d="M244.6,556.29s-17.472,33.089,2.654,63.65l276.918,60.005s-17.182-26.38.917-62.95l-87.57-18.956Z" transform="translate(-126.51 -173.992)"/><path class="f" d="M256.586,571.68s-9.974,24.2,0,39.879" transform="translate(-130.225 -177.91)"/><path class="h" d="M527.518,699.648l154.6-65.969s8.639,1.864,3.049,8.2-154.672,64.1-154.672,64.1L250.6,639.643Z" transform="translate(-129.829 -193.695)"/><path class="f" d="M527.518,699.648l154.6-65.969s8.639,1.864,3.049,8.2-154.672,64.1-154.672,64.1L250.6,639.643Z" transform="translate(-129.829 -193.695)"/><path class="f" d="M602.837,646.68s-14.908,17.89,0,44.724" transform="translate(-217.82 -197.004)"/><rect class="f" width="70.493" height="0.745" transform="translate(390.33 471.689) rotate(-18.45)"/><rect class="f" width="85.893" height="0.745" transform="translate(390.315 477.687) rotate(-20.82)"/><rect class="f" width="99.556" height="0.745" transform="translate(390.752 484.751) rotate(-22.26)"/><rect class="f" width="114.599" height="0.745" transform="translate(391.836 490.99) rotate(-24.31)"/><rect class="f" width="125.34" height="0.745" transform="matrix(0.916, -0.401, 0.401, 0.916, 392.654, 494.016)"/><rect class="f" width="149.991" height="0.745" transform="translate(394.393 499.114) rotate(-23.36)"/><path class="i" d="M251.53,508.34l131.191-27.58,79.922,15.281L355.141,530.7Z" transform="translate(-64.038 -122.397)"/><path class="h" d="M777.018,563.51s6.776,2.736,2.8,6.955S623.33,618.834,623.33,618.834Z" transform="translate(-224.724 -175.83)"/><path class="e" d="M774.281,464.15s-16.9,37.024-3.481,68.2L635.881,574.47l-12.918,2.736L617,551.117l3.988-32.925V500.175Z" transform="translate(-223.113 -150.533)"/><path class="b" d="M167.89,391.223,354.629,357.18,602.074,396.6l-153.7,55.331Z" transform="translate(-42.744 -90.934)"/><path class="b" d="M254.062,446.26s-17.495,33.089,2.631,63.65l276.918,60.005s-17.189-26.38.909-62.942Z" transform="translate(-128.916 -145.979)"/><path class="f" d="M254.062,446.26s-17.495,33.089,2.631,63.65l276.918,60.005s-17.189-26.38.909-62.942Z" transform="translate(-128.916 -145.979)"/><path class="f" d="M266.025,461.65s-9.981,24.211,0,39.879" transform="translate(-132.627 -149.897)"/><path class="b" d="M536.958,591.655l154.6-49.57s8.647,1.864,3.056,8.2S539.94,597.991,539.94,597.991L260.04,531.65Z" transform="translate(-132.233 -167.718)"/><path class="f" d="M536.958,591.655l154.6-49.57s8.647,1.864,3.056,8.2S539.94,597.991,539.94,597.991L260.04,531.65Z" transform="translate(-132.233 -167.718)"/><path class="f" d="M612.277,536.65s-14.908,17.89,0,44.724" transform="translate(-220.223 -168.991)"/><rect class="f" width="70.493" height="0.745" transform="translate(397.369 389.67) rotate(-18.45)"/><rect class="f" width="85.893" height="0.745" transform="translate(397.349 395.673) rotate(-20.82)"/><rect class="f" width="99.556" height="0.745" transform="translate(397.779 402.74) rotate(-22.26)"/><rect class="f" width="114.599" height="0.745" transform="translate(398.873 408.973) rotate(-24.31)"/><rect class="f" width="125.34" height="0.745" transform="matrix(0.916, -0.401, 0.401, 0.916, 399.694, 412.006)"/><rect class="f" width="149.991" height="0.745" transform="translate(401.431 417.108) rotate(-23.36)"/><path class="g" d="M260.96,398.31l131.191-27.58,79.922,15.281-107.5,34.661Z" transform="translate(-66.439 -94.384)"/><path class="b" d="M786.448,453.48s6.783,2.736,2.8,6.962S632.76,508.812,632.76,508.812Z" transform="translate(-227.125 -147.817)"/><path class="b" d="M390.364,149.907s-28.325-1.707-25.016,18.166a4.848,4.848,0,0,0,2.519,5.106s.052-1.491,2.907-.976a12.71,12.71,0,0,0,3.086.149,6.426,6.426,0,0,0,3.764-1.55h0s7.968-3.295,11.069-16.324c0,0,2.3-2.84,2.236-3.571l-4.8,2.042s1.632,3.451.35,6.321c0,0-.157-6.194-1.081-6.053-.186,0-2.482,1.2-2.482,1.2s2.81,6.015.686,10.384c0,0,.805-7.409-1.565-9.951l-3.369,1.968s3.287,6.209,1.059,11.278c0,0,.574-7.775-1.767-10.8L374.9,159.68S378,165.8,376.112,170c0,0-.246-9.049-1.864-9.735,0,0-2.676,2.355-3.079,3.325,0,0,2.117,4.472.8,6.791,0,0-.8-6.03-1.491-6.06,0,0-2.661,4-2.937,6.709a14.506,14.506,0,0,1,2.288-7.111,7.984,7.984,0,0,0-4.07,2.109s.41-2.825,4.733-3.071c0,0,2.2-3.034,2.788-3.213,0,0-4.3-.365-6.9.79,0,0,2.3-2.661,7.685-1.491l2.982-2.46s-5.65-.745-8.05.082c0,0,2.765-2.355,8.863-.641l3.287-1.96s-4.823-1.036-7.693-.663c0,0,3.026-1.632,8.654.134l2.341-1.051s-3.526-.693-4.562-.805-1.088-.4-1.088-.4a12.307,12.307,0,0,1,6.634.745S390.461,150.221,390.364,149.907Z" transform="translate(-158.975 -70.52)"/><path class="a" d="M924.964,259.487s-28.325-1.707-25.016,18.166a4.848,4.848,0,0,0,2.52,5.106s.052-1.491,2.907-.977a13.134,13.134,0,0,0,3.086.149,6.4,6.4,0,0,0,3.727-1.55h0s7.976-3.295,11.069-16.324c0,0,2.3-2.84,2.236-3.57l-4.786,2.042s1.633,3.451.35,6.321c0,0-.157-6.194-1.073-6.053-.186,0-2.49,1.2-2.49,1.2s2.81,6.015.693,10.384c0,0,.8-7.409-1.573-9.951l-3.369,1.968s3.287,6.209,1.058,11.278c0,0,.574-7.775-1.767-10.8l-3.049,2.385s3.086,6.12,1.2,10.324c0,0-.246-9.049-1.864-9.735,0,0-2.669,2.355-3.079,3.324,0,0,2.117,4.472.805,6.791,0,0-.805-6.03-1.491-6.06,0,0-2.661,4-2.937,6.709a14.46,14.46,0,0,1,2.3-7.111,8.02,8.02,0,0,0-4.077,2.109s.417-2.825,4.733-3.071c0,0,2.2-3.034,2.788-3.22,0,0-4.294-.358-6.9.8,0,0,2.3-2.661,7.685-1.491l2.982-2.46s-5.658-.745-8.05.082c0,0,2.758-2.355,8.863-.641l3.28-1.96s-4.823-1.036-7.693-.663c0,0,3.026-1.632,8.654.134l2.348-1.051s-3.533-.693-4.569-.805-1.088-.4-1.088-.4a12.217,12.217,0,0,1,6.634.745S925.053,259.8,924.964,259.487Z" transform="translate(-295.081 -98.418)"/><path class="a" d="M452.313,308.994s-12.344-25.59-28.057-12.978a4.841,4.841,0,0,0-3.228,4.689s1.3-.678,2.236,2.065a13.207,13.207,0,0,0,1.372,2.758,6.433,6.433,0,0,0,3.2,2.534h0s6.761,5.352,19.649,1.7c0,0,3.6.619,4.189.186l-4.115-3.183s-2.236,3.108-5.352,3.384c0,0,5.337-3.153,4.763-3.884-.119-.149-2.236-1.588-2.236-1.588s-3.884,5.389-8.729,5.665c0,0,6.858-2.907,7.916-6.224l-3.354-1.983s-3.824,5.9-9.332,6.425c0,0,7.066-3.287,8.565-6.806l-3.563-1.491s-3.839,5.68-8.431,6.09c0,0,7.782-4.629,7.588-6.381,0,0-3.362-1.178-4.405-1.066,0,0-2.847,4.018-5.531,4.018,0,0,4.868-3.645,4.569-4.234,0,0-4.785-.373-7.3.745a14.513,14.513,0,0,1,7.327-1.491,8.028,8.028,0,0,0-3.831-2.527s2.669-1.014,4.987,2.631c0,0,3.727.44,4.167.865,0,0-1.782-3.921-4.055-5.628,0,0,3.444.693,5.017,5.963l3.615,1.431s-2.08-5.307-4-6.984c0,0,3.4,1.26,4.882,7.454l3.31,1.908s-1.439-4.718-3.168-7.037c0,0,2.9,1.849,4.1,7.618l2.065,1.536s-1.118-3.421-1.491-4.376-.186-1.148-.186-1.148a12.232,12.232,0,0,1,2.594,6.15S452.044,309.218,452.313,308.994Z" transform="translate(-173.218 -106.838)"/><path class="a" d="M836.093,205.374s-12.336-25.59-28.057-12.978a4.85,4.85,0,0,0-3.228,4.689s1.312-.671,2.236,2.065a12.925,12.925,0,0,0,1.379,2.765,6.4,6.4,0,0,0,3.19,2.527h0s6.768,5.352,19.649,1.707c0,0,3.6.611,4.2.179l-4.092-3.19s-2.236,3.116-5.345,3.392c0,0,5.33-3.161,4.756-3.891-.119-.149-2.236-1.588-2.236-1.588s-3.876,5.389-8.729,5.665c0,0,6.865-2.907,7.924-6.217l-3.407-1.968s-3.816,5.9-9.332,6.425c0,0,7.066-3.295,8.572-6.813L820,196.653s-3.839,5.687-8.423,6.09c0,0,7.775-4.629,7.581-6.373,0,0-3.354-1.185-4.4-1.066,0,0-2.848,4.01-5.538,4.01,0,0,4.875-3.645,4.577-4.234,0,0-4.785-.373-7.312.745a14.505,14.505,0,0,1,7.327-1.491,7.982,7.982,0,0,0-3.824-2.527s2.669-1.014,4.987,2.631c0,0,3.727.447,4.167.872,0,0-1.782-3.928-4.062-5.635,0,0,3.444.7,5.017,6l3.623,1.431s-2.08-5.315-4-6.992c0,0,3.4,1.26,4.875,7.454l3.317,1.908s-1.446-4.711-3.175-7.037c0,0,2.907,1.849,4.1,7.618L830.9,201.6s-1.111-3.421-1.491-4.376-.186-1.14-.186-1.14a12.262,12.262,0,0,1,2.587,6.15S835.862,205.613,836.093,205.374Z" transform="translate(-270.926 -80.457)"/><path class="a" d="M888.975,375.182s-12.337-25.6-28.079-12.985a4.851,4.851,0,0,0-3.228,4.689s1.312-.671,2.236,2.065a12.918,12.918,0,0,0,1.372,2.765,6.4,6.4,0,0,0,3.19,2.527h0s6.768,5.359,19.656,1.707c0,0,3.593.619,4.189.179l-4.115-3.183s-2.236,3.116-5.352,3.392c0,0,5.33-3.161,4.756-3.891-.119-.149-2.236-1.588-2.236-1.588s-3.876,5.389-8.729,5.673c0,0,6.865-2.915,7.924-6.224l-3.362-1.983s-3.816,5.9-9.333,6.425c0,0,7.066-3.295,8.572-6.813l-3.57-1.491s-3.839,5.68-8.423,6.09c0,0,7.782-4.629,7.588-6.381,0,0-3.362-1.185-4.405-1.066,0,0-2.847,4.01-5.538,4.01,0,0,4.875-3.645,4.577-4.234,0,0-4.786-.373-7.312.745a14.55,14.55,0,0,1,7.335-1.491,7.969,7.969,0,0,0-3.831-2.527s2.669-1.021,4.987,2.631c0,0,3.727.44,4.167.865,0,0-1.781-3.921-4.055-5.635,0,0,3.444.7,5.017,6l3.615,1.431s-2.08-5.315-4-6.984c0,0,3.4,1.252,4.875,7.454l3.317,1.9s-1.446-4.711-3.175-7.037c0,0,2.907,1.849,4.107,7.626l2.065,1.491s-1.118-3.421-1.491-4.376-.186-1.14-.186-1.14a12.188,12.188,0,0,1,2.587,6.15S888.744,375.406,888.975,375.182Z" transform="translate(-284.384 -123.687)"/><ellipse class="a" cx="17.137" cy="1.916" rx="17.137" ry="1.916" transform="translate(133.398 580.688)"/><ellipse class="a" cx="17.137" cy="1.916" rx="17.137" ry="1.916" transform="translate(21.058 548.129)"/><ellipse class="a" cx="17.137" cy="1.916" rx="17.137" ry="1.916" transform="translate(219.03 602.312)"/><ellipse class="a" cx="17.137" cy="1.916" rx="17.137" ry="1.916" transform="translate(657.851 555.21)"/><ellipse class="a" cx="17.137" cy="1.916" rx="17.137" ry="1.916" transform="translate(515.247 545.915)"/><ellipse class="a" cx="20.268" cy="3.481" rx="20.268" ry="3.481" transform="translate(419.865 588.12)"/><path class="b" d="M685.082,790.14s-28.221,14.58-13.641,31.754a5.455,5.455,0,0,0,5.337,3.466s-.79-1.446,2.236-2.6a14.539,14.539,0,0,0,3.049-1.617,7.163,7.163,0,0,0,2.728-3.645h0s5.769-7.722,1.3-22.012c0,0,.581-4.04.074-4.7l-3.429,4.7s3.541,2.378,3.951,5.874c0,0-3.727-5.866-4.472-5.218-.164.134-1.7,2.572-1.7,2.572s6.142,4.167,6.6,9.578c0,0-3.459-7.581-7.193-8.662l-2.139,3.817s6.709,4.085,7.454,10.227c0,0-3.9-7.789-7.879-9.362l-1.573,4.033s6.47,4.115,7.066,9.228c0,0-5.412-8.55-7.357-8.281,0,0-1.222,3.787-1.058,4.957,0,0,4.569,3.056,4.651,6.06,0,0-4.219-5.33-4.868-4.979,0,0-.268,5.359,1.029,8.147a16.084,16.084,0,0,1-1.871-8.147,8.946,8.946,0,0,0-2.706,4.353s-1.215-2.944,2.788-5.658c0,0,.38-4.167.842-4.681,0,0-4.331,2.117-6.172,4.711,0,0,.678-3.869,6.552-5.792l1.491-4.085s-5.874,2.49-7.685,4.681c0,0,1.3-3.839,8.147-5.68l2.027-3.727s-5.218,1.759-7.767,3.727c0,0,1.975-3.3,8.393-4.823l1.647-2.348s-3.787,1.349-4.845,1.834-1.267.246-1.267.246a13.708,13.708,0,0,1,6.791-3.086S685.343,790.393,685.082,790.14Z" transform="translate(-235.908 -233.528)"/><path class="j" d="M717.189,324.656c-4.875-13.246-31.71-14.491-43.353-11.114-8.274,2.408-25.716,5.121-35.034,6.485l-.6-.574c1.208-.358,1.237-1.237,1.088-2.542a39.781,39.781,0,0,1,.074-5.158c5.71,1.774,10.794-2.423,10.794-2.423h0c6.709-2.982,4.9-15.743,6.187-19.231.962-2.609,2-17.979,2.46-25.642h.1l.052-2.572c.067-1.111.1-1.759.1-1.759s.656-18.74,1.938-22.534c1.193-3.488,2.162-21.065,2.311-23.853v-.365l-.1-1.625c.067-1.185.1-2.5.089-3.891,0-6.373-.663-14.4-.745-15.7v-.678c.052-2.721-.291-16.347-11.882-21.5-4.271-1.908-9.407-4.182-14.379-6.4-1.282-11.069-4.212-22.079-3.958-33.23,0-1.677.149-3.354.313-5.024,0,.485-.052.977-.06,1.491v3.25c.44-13.947,5.71-27.968,5.218-41.616-.045,1.334-.142,2.676-.268,4.018A43.331,43.331,0,0,0,636.1,78.769a8.111,8.111,0,0,0-2.341-4.249,9.637,9.637,0,0,0-4.085-1.618,82.147,82.147,0,0,0-10.726-2,16.563,16.563,0,0,0-2.415-4.689c-7.559-10.376-18.755-20.126-31.993-22.362-6.642-1.118-14.282-.186-18.8,4.562a14.1,14.1,0,0,0-1.327,1.342c-2.43,2.9-3.474,6.709-5.963,9.6-.164.194-.35.373-.529.559-4.875,4.361-12.471,5.27-17.89,9.183a21.477,21.477,0,0,0-2.676,2.333,45.374,45.374,0,0,0-5.844,7.1c-2.437,3.429-4.942,7-5.717,11.092-1.558,8.2,4.025,15.974,5.061,24.226,2.311,18.464-18.121,34.848-14.252,53.065a24.3,24.3,0,0,0,6.575,11.8c-7.968,7.216-14.752,14.215-14.752,14.215v.417h-1.26l.127,1.491h-.127l.693,8.088-.693,11.777v1.111h.045c.231,4.316,1.148,19.835,2.236,23.108,1.282,3.794,1.931,22.534,1.931,22.534s1.416,26.484,2.713,29.988-.544,16.228,6.187,19.231h0a14.163,14.163,0,0,0,6.761,2.8c-.343,2.788-.127,4.808.984,5.441a3.25,3.25,0,0,0,1.565.447,16.618,16.618,0,0,0-1.215,2.124,31.574,31.574,0,0,1-7.812-1.841c-7.23-2.982-31.225-9.69-38.195-4.972s-23.741,9-16,27.99,11.353,19.47,11.353,19.47a27.579,27.579,0,0,1,6.194,6.224c2.326,3.5,23.995,11.494,29.414,11.494a53.06,53.06,0,0,1,6.9.343s-5.881,5.158-5.1,8.155-1.789,26.984-1.789,26.984,5.963,6.008,8.513-1.871l.089.119c.477.648,3.056,3.578,7.909-.119a44.336,44.336,0,0,1,6.306-4l23.5-3.325A66.512,66.512,0,0,1,567,406.1c3.727.306,7.387-1.9,9.69-3.608,4.868,1.849,10.339,3.869,12.94,4.607,5.277,1.491,29.533,8,35.206,5.963a7.88,7.88,0,0,0,3.056-2.177l5.412.171-2.534.507s4.935.082,11.643.171l-.283.164,8.416-.075c12.314.112,26.149.149,27.968-.261,2.847-.634,17.644-.186,22,0h1.215s16.257-3.242,9.549-19.738c-5.158-12.672-21.013-16.354-28.05-17.368,1.983-.4,3.69-.7,4.823-.88,4.912-.745,14.453-5.218,15.229-6.746s8.773-5.963,10.838-8.49S722.086,337.9,717.189,324.656ZM582.531,361.725l-.8.261-.537.179-1.029,1.014c-.82-.552-1.7-1.133-2.616-1.729C579.169,361.546,580.832,361.643,582.531,361.725Zm71.045,21.006Z" transform="translate(-184.253 -43.42)"/><path class="k" d="M686.65,333.6s11.4,29.816,17.89,26.835,4.726-15.654,5.963-19.127,2.609-29.816,2.609-29.816.626-18.635,1.864-22.407c1.148-3.466,2.08-20.946,2.236-23.7v-.365l-1.23-21.617-6.962-1.737-16.145,5.963L690.638,260.4l-.872,4.987-.373,2.124Z" transform="translate(-240.845 -93.891)"/><path class="f" d="M691.69,358.3s10.883,8.908,14.163,9.69,5.292,7.73,5.292,7.73" transform="translate(-242.128 -123.585)"/><path class="k" d="M556.562,335.351s-11.4,29.816-17.89,26.835-4.726-15.654-5.963-19.127-2.609-29.816-2.609-29.816-.626-18.635-1.864-22.407c-1.148-3.466-2.08-20.946-2.236-23.7v-.365l1.237-21.617,6.962-1.737,16.146,5.963,2.236,12.769.872,4.987.373,2.124Z" transform="translate(-199.944 -94.337)"/><rect class="l" width="25.456" height="39.678" transform="translate(405.426 81.452)"/><rect class="f" width="25.456" height="39.678" transform="translate(405.426 81.452)"/><path class="m" d="M558.886,405.78s-8.7,9.564-5.471,11.3,24.107,34.289,24.107,34.289,68.577,8.445,81.51-4.226,12.672-35.31,12.672-35.31-10.391,2.236-11.524,1.021-7.357-7.074-7.357-7.074S564.849,400.443,558.886,405.78Z" transform="translate(-206.741 -135.069)"/><path class="n" d="M558.886,405.78s-8.7,9.564-5.471,11.3,24.107,34.289,24.107,34.289,68.577,8.445,81.51-4.226,12.672-35.31,12.672-35.31-10.391,2.236-11.524,1.021-7.357-7.074-7.357-7.074S564.849,400.443,558.886,405.78Z" transform="translate(-206.741 -135.069)"/><path class="k" d="M675.966,220.988,653.6,238.877l-6.761.492-2.482.179L602.67,242.6l-43.234-3.16-6.433-.47-8.2-.6-17.144-16.4s12.135-13,22.765-21.773c4.189-3.466,8.147-6.269,11.032-7.372l.492-.171a12.27,12.27,0,0,0,4.726-3.295c8.393-8.654,16.153-30.01,16.153-30.01s37.024-19.127,32.552,5.963,16.645,18.889,16.645,18.889l6.962,3.175,2.751,1.26,7.014,3.213,15.825,7.26C676.995,204.835,675.966,220.988,675.966,220.988Z" transform="translate(-200.367 -71.159)"/><circle class="f" cx="33.297" cy="33.297" r="33.297" transform="translate(367.269 42.035)"/><path class="f" d="M675.6,258.449H526v-.365l1.237-21.617s12.135-13,22.765-21.773l93.921-3.727,4.368-4.607,15.825,7.26c12.426,5.71,11.427,21.863,11.427,21.863S677.243,254.2,675.6,258.449Z" transform="translate(-199.944 -84.902)"/><path class="o" d="M675.6,257.449H526v-.365l1.237-21.617s12.135-13,22.765-21.773l93.921-3.727,4.368-4.607,15.825,7.26c12.426,5.71,11.427,21.863,11.427,21.863S677.243,253.2,675.6,257.449Z" transform="translate(-199.944 -84.647)"/><path class="f" d="M590.608,191.7s23.6,30.07,55.033-.619,3.481,68.451,3.481,68.451l-67.832,8.05Z" transform="translate(-214.021 -79.51)"/><path class="o" d="M590.608,193.7s23.6,30.07,55.033-.619,3.481,68.451,3.481,68.451l-67.832,8.05Z" transform="translate(-214.021 -80.019)"/><path class="f" d="M647.779,202.58l2.5,38.083,2.676,12.672,2.042,9.69s5.218,74.541,3.727,78.268.745,6.709,1.058,8.691-.313,6.962-.067,9.2,0,3.228-5.71,2.43-13.671-2.184-13.671-2.184-20.126,1.491-27.081-.991-20.126-2.49-20.126-2.49-19.88.5-26.335-.246-9.944,7.953-14.163,5.464,4.964-26.581,7.946-33.543-3.973-24.6-3.973-24.6l8.945-49.622,1.99-11.248V206.791l.492-.171a12.269,12.269,0,0,0,4.726-3.295l2.236,35.586,70.068,2.49V201.35" transform="translate(-206.446 -83.626)"/><path class="o" d="M647.779,200.58l2.5,38.083,2.676,12.672,2.042,9.69s5.218,74.541,3.727,78.268.745,6.709,1.058,8.691-.313,6.962-.067,9.2,0,3.228-5.71,2.43-13.671-2.184-13.671-2.184-20.126,1.491-27.081-.991-20.126-2.49-20.126-2.49-19.88.5-26.335-.246-9.944,7.953-14.163,5.464,4.964-26.581,7.946-33.543-3.973-24.6-3.973-24.6l8.945-49.622,1.99-11.248V204.791l.492-.171a12.269,12.269,0,0,0,4.726-3.295l2.236,35.586,70.068,2.49V199.35" transform="translate(-206.446 -83.117)"/><path class="f" d="M652.276,82.383a8.214,8.214,0,0,0-2.236-4.219,9.154,9.154,0,0,0-3.936-1.61,77.76,77.76,0,0,0-10.346-1.983,16.563,16.563,0,0,0-2.236-4.644c-7.3-10.316-18.113-20.044-30.83-22.243-6.656-1.155-14.371-.119-18.635,5.128-2.341,2.885-3.347,6.709-5.71,9.541-4.554,5.5-12.776,6.179-18.516,10.436-3.064,2.236-5.285,5.479-7.454,8.624-2.348,3.407-4.763,6.955-5.509,11.025-1.491,8.132,3.884,15.885,4.875,24.092,2.236,18.359-17.443,34.646-13.723,52.76,2.169,10.562,11.927,18,22.019,21.773,3.556,1.334,7.618,2.661,9.28,6.075.745,1.491.872,3.213,1.573,4.718,2.355,5.024,10.1,5.218,14.26,1.558s5.471-9.578,5.963-15.1c2-24.121-7.663-47.952-6.537-72.133.335-7.312,2.393-15.609,8.945-18.918,8.818-4.472,19.425,2.982,29.13,1.558a57.791,57.791,0,0,1,2.788,35.265c-1.543,6.433-4.212,12.672-4.405,19.306-.291,10.1,5.158,19.328,9.869,28.258a15.033,15.033,0,0,1,1.99,5.449,13.132,13.132,0,0,1-1.066,5.7c-2.661,7.163-7.253,13.812-7.775,21.438a3.466,3.466,0,0,0,.559,2.549,3.2,3.2,0,0,0,1.923.865c8.05,1.379,15.013-5.755,18.941-12.918A60.557,60.557,0,0,0,652.946,179c.813-15.176-4.629-30.107-4.294-45.3C649.041,116.434,656.845,99.043,652.276,82.383Z" transform="translate(-202.885 -44.396)"/><path class="l" d="M653.276,81.383a8.214,8.214,0,0,0-2.236-4.219,9.153,9.153,0,0,0-3.936-1.61,77.758,77.758,0,0,0-10.346-1.983,16.564,16.564,0,0,0-2.236-4.644c-7.3-10.316-18.113-20.044-30.83-22.243-6.656-1.155-14.372-.119-18.635,5.128-2.341,2.885-3.347,6.709-5.71,9.541-4.554,5.5-12.776,6.179-18.516,10.436-3.064,2.236-5.285,5.479-7.454,8.624-2.348,3.407-4.763,6.955-5.509,11.025-1.491,8.132,3.884,15.885,4.875,24.092,2.236,18.359-17.442,34.646-13.723,52.76,2.169,10.562,11.927,18,22.019,21.773,3.556,1.334,7.618,2.661,9.28,6.075.745,1.491.872,3.213,1.573,4.718,2.355,5.024,10.1,5.218,14.26,1.558s5.471-9.578,5.963-15.1c2-24.121-7.663-47.952-6.537-72.133.335-7.312,2.393-15.609,8.945-18.918,8.818-4.472,19.425,2.982,29.13,1.558a57.791,57.791,0,0,1,2.788,35.265c-1.543,6.433-4.212,12.672-4.405,19.306-.291,10.1,5.158,19.328,9.869,28.258a15.036,15.036,0,0,1,1.99,5.449,13.133,13.133,0,0,1-1.066,5.7c-2.661,7.163-7.253,13.812-7.775,21.438a3.466,3.466,0,0,0,.559,2.549,3.206,3.206,0,0,0,1.923.865c8.05,1.379,15.012-5.755,18.941-12.918A60.557,60.557,0,0,0,653.946,178c.813-15.176-4.629-30.107-4.294-45.3C650.041,115.434,657.845,98.043,653.276,81.383Z" transform="translate(-203.14 -44.141)"/><path class="p" d="M581.79,485.563l29.57.947-4.241-21.93-22.653,2.154Z" transform="translate(-148.12 -118.277)"/><path class="m" d="M746.361,450.639c-1.99,2.482-9.69,6.955-10.436,8.445s-9.936,5.963-14.662,6.709-19.627,3.98-22.362,5.717c-1.96,1.252-17.7,5.218-28.035,7.417a79.548,79.548,0,0,1-8.49,1.528c-4.472.246-53.416-16.4-53.416-16.4l9.437-9.69.522-.179c2.669-.9,15-5.069,21.84-7.052,7.708-2.236,16.652-11.427,16.652-11.427s13.164-4.472,14.908-4.972-4.472-17.39-4.472-17.39,28.571-3.966,39.753-7.327,37.024-2.117,41.743,11.054S748.381,448.157,746.361,450.639Z" transform="translate(-221.066 -135.33)"/><path class="o" d="M597.066,513.755s-5.71,5.963-11.427,5.471-25.709,1.491-25.709,1.491a40.081,40.081,0,0,0-10.07,5.837c-4.674,3.682-7.156.745-7.618.119l-.082-.119c-2.49,7.834-8.2,1.864-8.2,1.864s2.482-23.853,1.722-26.835,4.912-8.1,4.912-8.1l6.709-1.707,17-4.353,24.352,8.445Z" transform="translate(-201.971 -156.458)"/><path class="f" d="M547.273,493.26l-5.031,34.9-.082-.119c-2.49,7.834-8.2,1.864-8.2,1.864s2.482-23.853,1.722-26.835,4.912-8.1,4.912-8.1Z" transform="translate(-201.971 -157.945)"/><path class="f" d="M599,360.08s13.164,4.472,24.6,0" transform="translate(-218.53 -124.038)"/><path class="f" d="M659.29,371.42s5.464,2.728,9.69,0" transform="translate(-233.879 -126.925)"/><path class="f" d="M659.29,379.672s9.191,1.23,10.935-1.252" transform="translate(-233.879 -128.707)"/><path class="f" d="M655.29,396.968s17.264-2.236,21.55-5.218" transform="translate(-232.861 -132.101)"/><path class="f" d="M584.62,391.75s9.69,5.464,16.9,5.218" transform="translate(-214.869 -132.101)"/><path class="f" d="M670.856,495.92a79.579,79.579,0,0,1-8.49,1.528c-4.472.246-53.416-16.4-53.416-16.4l9.437-9.69.522-.179c1.491,1.051,2.713,1.953,3.585,2.639,4.107,3.235,8.073-.991,9.564-.991s14.409,10.682,14.409,10.682,11.927,2.736,13.917,5.218,8.945,1.99,10.182,3.727A6.648,6.648,0,0,1,670.856,495.92Z" transform="translate(-221.063 -152.323)"/><path class="m" d="M543.827,414.737s-12.061.693-19.015-2.236-30.062-9.69-36.771-4.942-22.862,8.945-15.408,27.833,10.935,19.381,10.935,19.381a26.909,26.909,0,0,1,5.963,6.187c2.236,3.481,23.108,11.427,28.325,11.427s14.409,0,27.327,8.945,24.6,9.944,24.6,9.944,16.4,6.709,21.505,8.2,28.437,7.946,33.909,5.963,8.945-14.416,8.945-14.416,2.482-11.181,1.237-12.918-8.2-1.245-10.182-3.727-13.917-5.218-13.917-5.218S598.391,458.47,596.9,458.47s-5.456,4.219-9.564.991a218.177,218.177,0,0,0-25.724-16.4C552.175,438.091,543.827,414.737,543.827,414.737Z" transform="translate(-185.868 -135.707)"/><path class="f" d="M536.27,427.322a14.237,14.237,0,0,1,12.217,3.228c5.963,4.972,26.03,14.953,26.03,14.953" transform="translate(-202.559 -141.084)"/><path class="f" d="M725.513,427s-26.589,4.025-31.553,9.489" transform="translate(-242.706 -141.075)"/><path class="o" d="M753.951,524.69h-1.17c-4.2-.149-18.449-.6-21.192,0-3.228.745-45.969,0-45.969,0l8.356-1.737s-3.1-10.868-1.133-11.77c0,0-11.181-7.365-2.751-12.336a26.154,26.154,0,0,1,17.517-2.877l21.162-7.171,4.063-1.379s23.853,1.245,30.308,17.644S753.951,524.69,753.951,524.69Z" transform="translate(-240.583 -156.458)"/><path class="f" d="M768.69,524.7h-1.17c6.94-5.725,22.638-23.152-24.01-35.854l4.063-1.379s23.853,1.245,30.308,17.644S768.69,524.7,768.69,524.7Z" transform="translate(-255.321 -156.47)"/><circle class="m" cx="1.304" cy="1.304" r="1.304" transform="translate(468.212 346.303)"/><circle class="m" cx="1.304" cy="1.304" r="1.304" transform="translate(460.631 348.457)"/><g class="q" transform="translate(335.614 46.881)"><path d="M644.245,133.622a57.836,57.836,0,0,0-4.279-23.957c-9.69,1.446-20.3-6.03-29.13-1.558-6.53,3.31-8.58,11.606-8.945,18.918-.089,1.931-.1,3.861-.067,5.792,0-.686,0-1.379.067-2.065.343-7.312,2.393-15.609,8.945-18.918,8.826-4.472,19.425,2.982,29.13,1.558A57.68,57.68,0,0,1,644.245,133.622Z" transform="translate(-554.858 -106.4)"/><path d="M556.219,132.769a24.848,24.848,0,0,0-.1-4.875c-.79-6.56-4.375-12.828-5.024-19.224-.835,7.715,4.077,15.124,5.024,22.951A4.654,4.654,0,0,1,556.219,132.769Z" transform="translate(-541.924 -106.911)"/><path d="M592.393,223.252c-.462,5.531-1.767,11.442-5.963,15.109s-11.927,3.466-14.26-1.558c-.745-1.491-.857-3.228-1.58-4.718-1.655-3.414-5.725-4.741-9.28-6.075-10.1-3.779-19.843-11.181-22.012-21.773a22.867,22.867,0,0,1-.4-2.907,23.493,23.493,0,0,0,.4,6.634c2.169,10.562,11.927,17.994,22.012,21.773,3.556,1.334,7.625,2.661,9.28,6.075.745,1.491.872,3.213,1.58,4.718,2.348,5.024,10.093,5.218,14.26,1.558s5.464-9.578,5.963-15.109a85.145,85.145,0,0,0,.231-8.751C592.624,219.92,592.527,221.59,592.393,223.252Z" transform="translate(-538.823 -130.502)"/><path d="M687.93,144.46v3.228c.417-13.865,5.5-27.8,5-41.378C692.544,118.863,688.213,131.7,687.93,144.46Z" transform="translate(-576.785 -106.31)"/><path d="M662.477,221.174a9.61,9.61,0,0,0,.171-2.691,14.907,14.907,0,0,0-1.99-5.449c-4.308-8.2-9.221-16.593-9.8-25.694,0,.388-.052.745-.06,1.163-.3,10.093,5.151,19.328,9.862,28.258a17.886,17.886,0,0,1,1.819,4.413Z" transform="translate(-567.328 -126.94)"/><path d="M683.774,217.751a60.655,60.655,0,0,1-7.521,25.731c-3.936,7.163-10.89,14.3-18.948,12.918a3.168,3.168,0,0,1-1.923-.872,1.862,1.862,0,0,1-.35-.581c-.089.581-.164,1.17-.209,1.767a3.436,3.436,0,0,0,.559,2.542,3.168,3.168,0,0,0,1.923.872c8.058,1.379,15.013-5.755,18.948-12.918a60.656,60.656,0,0,0,7.521-25.731c.089-1.744.1-3.481.045-5.218C683.8,216.759,683.8,217.251,683.774,217.751Z" transform="translate(-568.343 -134.303)"/></g><path class="r" d="M695.31,516.021s18.866,7.916,31.307-9.6" transform="translate(-243.05 -161.295)"/><path class="r" d="M700.29,536.305s15.408-10.018,35.034-.328" transform="translate(-244.318 -167.745)"/><path class="r" d="M561.93,532.2s6.47-14.6,23.749-3.466" transform="translate(-209.092 -165.91)"/><path class="f" d="M533.79,240.269l13.194-11.926s51.157-3.354,53.274,14.036c0,0,18.136-20.618,56.278-16.026L672.674,239.2l-44.605,19.574-43.345,15.035L552.8,259.523Z" transform="translate(-201.928 -89.822)"/><path class="e" d="M533.79,241.269l13.194-11.926s51.157-3.354,53.274,14.036c0,0,18.136-20.618,56.278-16.026L672.674,240.2l-44.605,19.574-43.345,15.035L552.8,260.523Z" transform="translate(-201.928 -90.076)"/><path class="f" d="M437.38,204.83l5.837,69.822,61.869,3.108L502.4,208.237l-.052-1.17Z" transform="translate(-111.354 -52.147)"/><path class="c" d="M437.38,202.83l5.837,69.822,61.869,3.108L502.4,206.236l-.052-1.17Z" transform="translate(-111.354 -51.637)"/><path class="f" d="M613.532,202.83,549.71,212.4v70.135l62.368-9.012Z" transform="translate(-139.953 -51.637)"/><path class="c" d="M613.532,200.83,549.71,210.4v70.135l62.368-9.012Z" transform="translate(-139.953 -51.128)"/><path class="g" d="M603.365,223.79l-34.475,3.831.753,11.748,33.7-3.682Z" transform="translate(-144.836 -56.974)"/><path class="k" d="M537.778,368.842l3.511,9.444s5.218,4.472,10.928,2.236,10.689-3.347,13.171-5.523,5.963-13.112,5.963-13.112,3.481-11.927,6.955-14.908,12.672-44.061,0-40.043-22.362,41.288-22.362,41.288a8.838,8.838,0,0,1-5.464,2.982c-3.228.253-9.69-.5-10.935,2.236S534.051,363.378,537.778,368.842Z" transform="translate(-202.562 -110.437)"/><path class="f" d="M631.9,257.486a21.468,21.468,0,0,1-18.717-4.666l2.691,69.517s6.336,6.858,16.026,5.292Z" transform="translate(-222.14 -96.73)"/><path class="c" d="M631.9,255.486a21.468,21.468,0,0,1-18.717-4.666l2.691,69.517s6.336,6.858,16.026,5.292Z" transform="translate(-222.14 -96.221)"/><path class="f" d="M631.9,255.486a21.468,21.468,0,0,1-18.717-4.666l2.691,69.517s6.336,6.858,16.026,5.292Z" transform="translate(-222.14 -96.221)"/><path class="f" d="M640.29,244.2s25.962-7.939,32.731-6.82" transform="translate(-229.042 -92.772)"/><path class="f" d="M591.3,240.358s-25.165-5.963-29.369-4.271" transform="translate(-209.092 -92.393)"/><path class="f" d="M662.25,246.481s17.36-6.366,23.637-3.339" transform="translate(-234.633 -94.058)"/><path class="f" d="M650.52,457.67a57.081,57.081,0,0,1,8.557-5.315,139.609,139.609,0,0,0,12.672-7.745" transform="translate(-231.646 -145.559)"/><path class="f" d="M555.285,360.08s-10.89,8.908-14.163,9.69-5.292,7.73-5.292,7.73" transform="translate(-202.447 -124.038)"/><path class="k" d="M699.272,367.069l-3.474,9.467s-5.218,4.472-10.935,2.236-10.682-3.347-13.171-5.523-5.963-13.112-5.963-13.112-3.474-11.926-6.955-14.908-12.672-44.061,0-40.043,22.362,41.288,22.362,41.288a8.838,8.838,0,0,0,5.464,2.982c3.228.253,9.69-.5,10.935,2.236S703,361.628,699.272,367.069Z" transform="translate(-232.096 -109.992)"/><path class="f" d="M707.15,364.94s7.119,4.577,7.089,10.048" transform="translate(-246.064 -125.275)"/><circle class="k" cx="33.297" cy="33.297" r="33.297" transform="translate(367.388 40.403)"/><path class="l" d="M592.439,118.31c4.04-.634,7.581-2.982,11.442-4.331,8.639-3.034,18.2-.954,26.939,1.782C634.174,116.812,637.58,118,641.1,118s7.253-1.439,9.049-4.472c1.655-2.788,1.334-6.41-.06-9.34a26.306,26.306,0,0,0-6.083-7.506c-7.752-7.32-17.368-14.163-28-13.417-4.279.306-8.371,1.834-12.307,3.526a135.666,135.666,0,0,0-14.446,7.275c-3.585,2.08-10.227,4.86-12.292,8.662C572.26,111.288,585.134,119.458,592.439,118.31Z" transform="translate(-212.662 -53.547)"/><path class="f" d="M650.147,117.664c-1.8,3.034-5.531,4.472-9.049,4.472s-6.925-1.14-10.287-2.191c-8.744-2.736-18.292-4.823-26.939-1.782-3.854,1.349-7.4,3.727-11.442,4.323-5.889.924-15.37-4.2-16.4-10.726-1.155,7.536,9.839,13.991,16.4,12.963,4.04-.634,7.588-2.982,11.442-4.323,8.647-3.041,18.2-.954,26.939,1.782,3.362,1.051,6.761,2.236,10.287,2.191s7.253-1.431,9.049-4.472a8.729,8.729,0,0,0,1.044-5.449,8.036,8.036,0,0,1-1.044,3.213Z" transform="translate(-212.661 -60.817)"/><path class="b" d="M1033.845,661.63s4.42,5.777-2.043,14.506-11.785,16.093-9.638,21.535c0,0,9.75-16.205,17.681-16.436S1042.559,671.372,1033.845,661.63Z" transform="translate(-326.142 -200.811)"/><path class="f" d="M1033.932,661.63a7.154,7.154,0,0,1,.9,1.811c7.737,9.094,11.867,17.584,4.42,17.793-6.932.2-15.244,12.6-17.234,15.721a7.337,7.337,0,0,0,.231.745s9.75-16.205,17.681-16.436S1042.645,671.372,1033.932,661.63Z" transform="translate(-326.228 -200.811)"/><path class="s" d="M1048.651,671.066c0,2.035-.231,3.682-.507,3.682s-.514-1.647-.514-3.682.283-1.073.567-1.073S1048.651,669.031,1048.651,671.066Z" transform="translate(-332.748 -202.882)"/><path class="s" d="M1051.6,674.28c-1.782.969-3.339,1.558-3.474,1.312s1.2-1.237,2.982-2.236,1.081-.268,1.215,0S1053.389,673.3,1051.6,674.28Z" transform="translate(-332.872 -203.666)"/><path class="b" d="M1003.274,661.63s-4.42,5.777,2.042,14.506,11.785,16.093,9.631,21.535c0,0-9.742-16.205-17.681-16.436S994.583,671.372,1003.274,661.63Z" transform="translate(-318.932 -200.811)"/><path class="f" d="M1003.274,661.63a7.16,7.16,0,0,0-.9,1.811c-7.737,9.094-11.867,17.584-4.42,17.793,6.925.2,15.244,12.6,17.234,15.721a5.771,5.771,0,0,1-.239.745s-9.742-16.205-17.681-16.436S994.583,671.372,1003.274,661.63Z" transform="translate(-318.932 -200.811)"/><path class="s" d="M995.64,671.066c0,2.035.224,3.682.507,3.682s.514-1.647.514-3.682-.291-1.073-.567-1.073S995.64,669.031,995.64,671.066Z" transform="translate(-319.512 -202.882)"/><path class="s" d="M991.49,674.28c1.781.969,3.339,1.558,3.474,1.312s-1.2-1.237-2.982-2.236-1.081-.268-1.215,0S989.7,673.3,991.49,674.28Z" transform="translate(-318.179 -203.666)"/><ellipse class="a" cx="46.215" cy="7.089" rx="46.215" ry="7.089" transform="translate(649.808 526.9)"/><path class="t" d="M1037.986,698.609l-.224,1.8-.313,2.549-.127,1.066-.313,2.549-.134,1.066-.306,2.542-3.541,29c-.313,2.587-4.54,4.607-9.645,4.607H1005.01c-5.106,0-9.325-2.02-9.646-4.607l-3.541-29-.313-2.542-.127-1.066-.313-2.549-.134-1.066-.306-2.549-.224-1.8c-.171-1.491,2.109-2.7,5-2.7h37.583C1035.877,695.91,1038.165,697.14,1037.986,698.609Z" transform="translate(-318.177 -209.538)"/><path class="u" d="M949.262,658.53l-.306,2.549H902.443l-.313-2.549Z" transform="translate(-229.677 -167.656)"/><path class="u" d="M948.972,663.38l-.306,2.549H903.033l-.313-2.549Z" transform="translate(-229.827 -168.891)"/><path class="u" d="M948.685,668.23l-.313,2.549H903.626l-.306-2.549Z" transform="translate(-229.98 -170.125)"/></g></svg>