<svg xmlns="http://www.w3.org/2000/svg" width="628" height="509.377" viewBox="0 0 628 509.377"><defs><style>.a{fill:#3f3d56;}.b{fill:#2f2e41;}.c{fill:#fbbebe;}.d{fill:#6c63ff;}.e{fill:#e6e6e6;}.f{fill:#fff;}.g{fill:#492583;}</style></defs><path class="a" d="M614.923,708.547a643.591,643.591,0,0,1-87.4-5.727c-.946-.121-1.9-.256-2.857-.4-7.111-1.011-14.225-2.167-21.142-3.436a456.66,456.66,0,0,1-87.238-24.711c-89.058-35.624-145.053-28.042-176.344-15.409-33.863,13.672-46.881,36.041-47.008,36.265l-1.114-.632c.129-.228,13.314-22.929,47.548-36.782,20.072-8.122,43.357-11.671,69.213-10.553,32.275,1.4,68.673,10.119,108.181,25.922a455.421,455.421,0,0,0,86.993,24.641c6.9,1.265,14,2.419,21.1,3.428.948.141,1.9.275,2.841.4,78.528,10.8,154.285,4.288,204.01-3.078,40.986-6.072,67.363-13.17,67.625-13.241l.335,1.236c-.262.071-26.705,7.189-67.773,13.272a807.533,807.533,0,0,1-116.965,8.808Z" transform="translate(-191.818 -240.758)"/><path class="a" d="M615.01,230.707c-22.577,0-44.557-1.056-65.764-3.168-48.73-4.853-93.465-15.324-132.962-31.123-89.058-35.624-145.053-28.043-176.344-15.409-33.863,13.671-46.881,36.04-47.008,36.264l-1.114-.632c.129-.228,13.314-22.929,47.548-36.781,20.072-8.122,43.357-11.673,69.213-10.553,32.276,1.4,68.673,10.119,108.181,25.922,89.2,35.68,188.455,37.082,256.014,31.979C746,221.673,798.8,207.514,799.325,207.371l.335,1.236c-.525.143-53.421,14.33-126.763,19.874C653.262,229.965,633.925,230.707,615.01,230.707Z" transform="translate(-191.818 -130.498)"/><path class="b" d="M712.817,125.112s-25.179-8.992-41.366,26.978-41.366,75.537-41.366,75.537l14.388,3.6s3.6-25.179,12.589-28.776l-3.6,32.373s107.911,37.769,156.47-3.6l-1.8-12.589s7.194,1.8,7.194,12.589l5.4-5.4s-5.4-10.791-21.582-25.179c-10.624-9.444-14.275-27.41-15.53-38.643A46.762,46.762,0,0,0,772.85,136.54C762.093,124.074,742.493,110.824,712.817,125.112Z" transform="translate(-292.942 -118.919)"/><path class="c" d="M916.837,391.56s47.382,40.414,54.349,64.1-26.478,26.478-26.478,26.478l-72.466,6.968s-1.394,33.446-13.936,37.627-2.546-55.308-2.546-55.308l70.831-19.946-32.052-33.446Z" transform="translate(-344.142 -181.827)"/><path class="c" d="M633.265,445.907l-5.574,73.86L597.032,645.188s-27.871,57.137-4.181,58.53,22.3-54.349,22.3-54.349l44.594-118.454,4.181-80.828Z" transform="translate(-282.148 -194.367)"/><ellipse class="c" cx="45.988" cy="45.988" rx="45.988" ry="45.988" transform="translate(383.169 29.962)"/><path class="c" d="M718.194,246.635s16.723,59.924-9.755,75.253,66.892,26.478,91.976-19.51c0,0-44.594-15.329-32.052-55.743Z" transform="translate(-309.94 -148.388)"/><path class="d" d="M672.5,352.681l-8.361-2.787s-16.723,6.968-16.723,19.51-2.787,62.711-2.787,62.711l37.627,4.181Z" transform="translate(-296.297 -172.213)"/><path class="b" d="M832.511,676.094c-51.445,7.621-126.426,13.775-204.185,3.08-.006-.769-.006-1.518-.006-2.248q0-6.523.5-12.9c3.983-52.335,30.945-95.967,41.378-111.087.525-.769,1.012-1.46,1.447-2.075,1.684-2.363,2.664-3.612,2.664-3.612s80.827-1.319,122.634,15.4a17.982,17.982,0,0,1,5.444,3.561C817.974,580.6,827.132,627.3,832.511,676.094Z" transform="translate(-292.534 -217.746)"/><path class="d" d="M852.26,327.473s18.117-9.755,36.233,11.149l36.233,41.807-27.872,30.659L843.9,379.035Z" transform="translate(-342.276 -166.515)"/><path class="b" d="M684.6,201.6c16.28-11.782,29.458-25.353,38.176-41.5,0,0,29.877,33.2,48.135,34.856s1.66-39.836,1.66-39.836l-33.2-8.3-31.537,3.32-24.9,16.6Z" transform="translate(-305.137 -125.358)"/><path class="d" d="M785.655,315.474s-19.5,30.835-78.037,16.114L674.4,340.737l-4.415,1.216s4.181,83.615,15.329,98.944,8.361,23.691,5.574,25.084-9.755-1.393-5.574,5.574,9.755,2.787,4.181,6.968-8.361,19.51-8.361,19.51l131,16.723s-4.181-54.349,6.968-82.221,13.936-39.02,13.936-39.02l-8.361-69.679Z" transform="translate(-302.148 -164.271)"/><rect class="e" width="179.317" height="224.147" transform="translate(31.938 123.921)"/><rect class="f" width="38.425" height="25.617" transform="translate(44.426 142.813)"/><rect class="f" width="148.577" height="8.966" transform="translate(44.747 192.766)"/><rect class="f" width="148.577" height="8.966" transform="translate(44.747 216.462)"/><rect class="f" width="148.577" height="8.966" transform="translate(44.747 240.158)"/><rect class="f" width="148.577" height="8.966" transform="translate(44.747 263.853)"/><rect class="f" width="148.577" height="8.966" transform="translate(44.747 287.548)"/><path class="g" d="M491.154,560.426a35.124,35.124,0,1,1-5.444-18.816A35.124,35.124,0,0,1,491.154,560.426Z" transform="translate(-244.675 -212.677)"/><path class="f" d="M490.455,544.94l-34.672,34.666c-2.179-3.374-14.32-19.052-14.32-19.052a49.119,49.119,0,0,1,4.97-4.387L456.5,569.59l29.895-29.895a35.083,35.083,0,0,1,4.06,5.245Z" transform="translate(-249.42 -216.007)"/></svg>