<svg xmlns="http://www.w3.org/2000/svg" width="206.502" height="168.696" viewBox="0 0 206.502 168.696"><defs><style>.a,.c{fill:#6c63ff;}.a,.g,.k{opacity:0.1;}.b{fill:#3f3d56;}.d{fill:#35323e;}.e{fill:#504f60;}.f{fill:#a1616a;}.h{fill:#464353;}.i{opacity:0.04;}.j{fill:#fff;}.l{fill:#fbbebe;}.m{opacity:0.05;}.n{fill:#f86d70;}.o{opacity:0.07;}</style></defs><g transform="translate(-0.001 -0.022)"><path class="a" d="M310.031,146.309v.382q-.034,3.315-.393,6.614a.242.242,0,0,1,0,.04c-.019.183-.04.363-.061.546-.036.309-.074.616-.116.924a66.492,66.492,0,0,1-2.422,11.091h0a59.809,59.809,0,0,1-6.324,13.925q-1.244,2-2.649,3.864h0c-.5.66-1.011,1.3-1.538,1.939q-.555.666-1.13,1.311l-.239.265a62.338,62.338,0,0,1-6.513,6.189,102.218,102.218,0,0,1-11.99,8.391c-.235.145-.473.288-.71.42a.344.344,0,0,1-.053.032,126.444,126.444,0,0,1-17.459,8.923,79.189,79.189,0,0,1-20.333,5.513c-9.711,1.193-19.539.223-29.191-1.445a189.7,189.7,0,0,1-23.741-5.673l-1.282-.4q-1-.317-1.99-.647-6-1.985-11.87-4.412a156.031,156.031,0,0,1-28.012-15.041q-1.681-1.13-3.313-2.311-2.282-1.643-4.509-3.383l-.916-.71a94.179,94.179,0,0,1-10.887-10,55.515,55.515,0,0,1-10.925-16.808q-.6-1.494-1.1-3.044l-.032-.1c-.168-.525-.324-1.05-.466-1.6q-.315-1.172-.553-2.374c-.034-.153-.063-.307-.09-.462a39.752,39.752,0,0,1-.662-8.179,37.817,37.817,0,0,1,.84-7.143h0a32.225,32.225,0,0,1,2.38-7.053h0a25.421,25.421,0,0,1,3.641-5.616h0a21.477,21.477,0,0,1,3.431-3.206,28.023,28.023,0,0,1,7.427-3.815h0c1.231-.441,2.479-.828,3.733-1.187.889-.256,1.782-.5,2.67-.74l2.622-.708c1.681-.458,3.362-.929,5.017-1.437a56.513,56.513,0,0,0,13.026-5.534c.647-.393,1.307-.824,1.966-1.286q1.261-.876,2.488-1.9h0c.828-.693,1.639-1.435,2.412-2.221.12-.122.237-.244.355-.368.63-.664,1.242-1.359,1.809-2.082.277-.353.546-.712.8-1.078.355-.506.691-1.021,1-1.551h0a15.873,15.873,0,0,0,2.408-8.645A13.3,13.3,0,0,0,166.456,83c-.273-1.855-.536-3.666-.729-5.437-.811-7.326-.469-13.969,5.03-20.211,6.837-7.759,17.566-9.341,27.333-8.721,28.239,1.786,53.946,17.909,76.538,37.1q2.931,2.488,5.79,5.042.721.643,1.443,1.294c3.572,3.217,7.089,6.553,10.364,10.127.265.29.529.58.79.872.16.181.321.359.479.542q1.532,1.733,2.973,3.551a67.269,67.269,0,0,1,6.79,10.295,58.443,58.443,0,0,1,5.962,18.209h0a64.886,64.886,0,0,1,.721,6.969c.036.687.059,1.376.071,2.063v.66C310.033,145.679,310.033,145.99,310.031,146.309Z" transform="translate(-108.55 -48.49)"/><path class="b" d="M381.342,445.58l-3.362,59.833,3.362.044,2.731-60.718Z" transform="translate(-298.567 -351.285)"/><rect class="c" width="41.599" height="9.034" transform="translate(28.78 124.61)"/><path class="b" d="M278.02,679.51v5.673H235.049q-2.282-1.643-4.509-3.383v-2.29Z" transform="translate(-204.909 -546.918)"/><path class="d" d="M242.27,526.915c-.118.544-.271,1.082-.433,1.618a21.088,21.088,0,0,0-1.162,4.685c-.149,2.126.42,4.6-1.051,6.143-.378.4-.872.7-1.21,1.124a1.969,1.969,0,0,0-.143.21,3.257,3.257,0,0,0-.342,1.681,29.423,29.423,0,0,0,.237,3.645c.5,4.16,1.481,8.328.189,12.255a18.893,18.893,0,0,1-.817,2,15.615,15.615,0,0,0-1.523,4.257,26.819,26.819,0,0,0-.113,3.393q-1-.317-1.99-.647-6-1.985-11.87-4.412c.011-.057.021-.115.029-.172a13.385,13.385,0,0,0-.611-5.605c-1.05-3.864-2.538-7.689-3.418-11.58a29.308,29.308,0,0,1-.7-4.622c-.025-.349-.04-.7-.042-1.051-.01-.458,0-.916.019-1.378.044-.922.084-2.017-.653-2.578a5.65,5.65,0,0,0-1.414-.542A8.015,8.015,0,0,1,213,533.5a2.96,2.96,0,0,0-2.645-.777c-4.723,1.082-8.194,5.089-12.589,7.114-.17.08-.34.155-.513.227a7.469,7.469,0,0,0-1.611.824,1.837,1.837,0,0,0-.723,1.019,3.813,3.813,0,0,0,.04,1.37,6.994,6.994,0,0,1-.095,2.233,6.819,6.819,0,0,1-.225.84c-.168.5-.393.985-.607,1.471q-1.681-1.13-3.313-2.311-2.282-1.643-4.509-3.383l-.9-.725a94.176,94.176,0,0,1-10.887-10,38.068,38.068,0,0,0,1.406-3.725c.176-.742.242-1.513.485-2.233a8.029,8.029,0,0,1,1.16-2.08,28.151,28.151,0,0,1,6.458-6.463c2.6-1.866,5.61-3.362,7.952-5.479a12.548,12.548,0,0,0,2.431-2.88,1.794,1.794,0,0,0,.111-.21,4.359,4.359,0,0,0,.376-1.2c.168-.941.143-1.975.227-2.878a30.7,30.7,0,0,0,8.641.261c3.351-.376,6.629-1.307,9.98-1.668.252-.029.506-.053.761-.074,1.074-.086,2.149-.105,3.227-.092.9,0,1.8.04,2.7.069l9.923.336a9.743,9.743,0,0,1,3.244.481,7.09,7.09,0,0,1,2.967,2.471c.1.134.2.269.29.408a12.813,12.813,0,0,1,1.529,3.023c.04.109.078.21.113.33.095.292.176.586.25.885.057.233.107.466.153.7a30.132,30.132,0,0,0,.733,3.477c.025.082.053.164.082.244.439,1.231,1.168,2.334,1.719,3.517a13.063,13.063,0,0,1,.9,2.674A13.218,13.218,0,0,1,242.27,526.915Z" transform="translate(-160.58 -407.234)"/><path class="c" d="M252.234,258.886c-.887-.706-2.172-.189-3.21.267a20.605,20.605,0,0,1-2.681.969,1.132,1.132,0,0,1-.588.061c-.42-.1-.6-.6-.91-.9a2.025,2.025,0,0,0-2.137-.116,4.876,4.876,0,0,1-2.147.63c-.8-.063-1.5-.655-2.311-.674-1.429-.034-2.628,1.727-3.979,1.261-.824-.284-1.471-1.355-2.282-1.05-.63.24-.687,1.111-1.067,1.681a4.056,4.056,0,0,1-2.065,1.145,5.933,5.933,0,0,0-3.6,6.057,20.878,20.878,0,0,0,1.284,3.975c1.315,3.843.863,8.177,2.521,11.883.21-.2.328-.271.532-.466a4.861,4.861,0,0,0-.284,3.488c.174.582.458,1.124.672,1.693a15.174,15.174,0,0,1,.538,1.954l1.828,8.063a52.359,52.359,0,0,1,1.555,9.53,27.81,27.81,0,0,1-.479,6.261c3.311-.548,6.341-2.017,9.7-2a27.03,27.03,0,0,1,3.672.378,75.6,75.6,0,0,0,10.742.729,4.265,4.265,0,0,0,1.647-.231,12.355,12.355,0,0,0,1.277-.8,5.651,5.651,0,0,1,2.876-.63c4.494-.082,8.824,1.563,13.289,2.143a16,16,0,0,0,.515-12,17.922,17.922,0,0,1-1.1-3.477,17.585,17.585,0,0,1-.05-2.233,16.2,16.2,0,0,0-1.015-5.584,5.742,5.742,0,0,1-.546-2.158,4.9,4.9,0,0,1,.756-2.1,14.581,14.581,0,0,1,6.208-6.778l3.242-2.177a31.986,31.986,0,0,0-2.2-8.326,14.806,14.806,0,0,0-5.364-6.45,17.719,17.719,0,0,0-2.534-1.261,11.774,11.774,0,0,0-3.834-1.05,20.322,20.322,0,0,0-4.5.571C261.5,261.951,255.965,261.854,252.234,258.886Z" transform="translate(-200.704 -214.391)"/><path class="b" d="M198.085,487.971l-1.542,1.948-2.908,3.67-3.362,4.242-.939,1.185h-1.822l-45.105.052-28.247.032H112.9c-.168-.525-.324-1.05-.466-1.6q-.315-1.172-.553-2.374c-.034-.153-.063-.307-.09-.462l10.248-6.7,3.853-.021h0l11.786-.067h0l6.582-.038h1.956l4.387-.023h0l33.435-.191h0l1.71-.01h.742l1.964-.01,7.309-.042,1.4-.534.1.109Z" transform="translate(-111.108 -394.877)"/><path class="e" d="M194.9,452.568l-.174.21-1.147,1.351-2.361,2.788-4.952,5.839-43.868-1.12-33.08-.84c-.034-.153-.063-.307-.09-.462a39.752,39.752,0,0,1-.662-8.179l3.668-1.878.84-.433,6.54-3.362,5.74-2.941,14.971,1.945,3.315.431,1.5.193,2.2.286.185.025,34.428,4.465,3.8.494,2.233.29,6.883.895Z" transform="translate(-108.55 -360.524)"/><path class="b" d="M463.452,534.51l-.036.826-.21,4.662-1.13,25.632-.24,5.54-.63,14.253-.355,8.051-1.282-.4q-1-.317-1.99-.647l3.074-55.885.065-1.172,1.353-.42Z" transform="translate(-384.249 -432.382)"/><path class="b" d="M116.642,534.22l-.095,2.158-.139,3.151q-.6-1.494-1.1-3.044l-.032-.1c-.168-.525-.324-1.05-.466-1.6Z" transform="translate(-113.494 -432.153)"/><ellipse class="f" cx="9.664" cy="13.026" rx="9.664" ry="13.026" transform="translate(48.424 44.249)"/><ellipse class="g" cx="9.664" cy="13.026" rx="9.664" ry="13.026" transform="translate(48.424 44.249)"/><circle class="f" cx="13.446" cy="13.446" r="13.446" transform="translate(46.008 35.95)"/><path class="h" d="M336.919,183.755a17.215,17.215,0,0,0-2.439.372,19.748,19.748,0,0,0-5.755,2.79,6.848,6.848,0,0,0-2.126,1.777c-.9,1.334-.548,3.032-1.05,4.513a13,13,0,0,1-1.145,2.151,25.615,25.615,0,0,0-2.273,6.185c-.118.437-.151,1.029.326,1.2a1.313,1.313,0,0,0,.815-.092c1.506-.5,3.42-.641,4.538.37s1.023,2.8,2.353,3.572c1.523.889,3.9-.185,5.284.863.592.45.807,1.17,1.292,1.712,1.13,1.261,3.3,1.2,5.114.945,1.038-.147,2.311-.246,2.941.483.3.345.389.817.74,1.128a1.929,1.929,0,0,0,2.4-.3,16.134,16.134,0,0,0,1.422-2.009c1-1.261,2.752-1.948,3.782-3.193a7.693,7.693,0,0,0,1.357-3.635l.876-4.7c.355-1.908.679-3.992-.4-5.673-.382-.605-.931-1.126-1.261-1.752-.221-.42-.345-.864-.6-1.261a5.235,5.235,0,0,0-1.078-1.088l-2.074-1.716a17.438,17.438,0,0,0-2.267-1.681C344.734,182.986,340.3,183.44,336.919,183.755Z" transform="translate(-277.198 -155.083)"/><path class="f" d="M127.174,340.281c-.5.529-.958,1.1-1.492,1.6a18.081,18.081,0,0,1-1.471,1.177q-1.235.924-2.416,1.914a13.532,13.532,0,0,0-2.214,2.212c-1.122,1.506-1.653,3.38-2.7,4.937-.929,1.38-2.238,2.471-3.181,3.841a5.941,5.941,0,0,0-.908,1.906,8.853,8.853,0,0,0-.187,2.015,14.964,14.964,0,0,0,.191,3.317,5.031,5.031,0,0,0,1.578,2.866,6.922,6.922,0,0,0,2.817,1.219,2.537,2.537,0,0,0,1.567.044,2.584,2.584,0,0,0,.912-.769l2.557-2.941c1.71-1.975,3.488-3.992,5.834-5.147.735-.359,1.511-.63,2.248-.979a12.107,12.107,0,0,0,6.194-7.952c.21-.821.345-1.66.481-2.5l.37-2.3a.733.733,0,0,0,0-.351.756.756,0,0,0-.269-.319,44.559,44.559,0,0,1-4.988-4.706,11.523,11.523,0,0,0-1.13-1.294c-.529-.42-.49-.389-1.126,0A13.5,13.5,0,0,0,127.174,340.281Z" transform="translate(-111.742 -276.973)"/><path class="b" d="M261.79,421.648a.395.395,0,1,0-.71.345l-.21.1,6.265,12.841,1.132-.553L262,421.535Z" transform="translate(-228.867 -343.045)"/><path class="i" d="M127.174,340.281c-.5.529-.958,1.1-1.492,1.6a18.081,18.081,0,0,1-1.471,1.177q-1.235.924-2.416,1.914a13.532,13.532,0,0,0-2.214,2.212c-1.122,1.506-1.653,3.38-2.7,4.937-.929,1.38-2.238,2.471-3.181,3.841a5.941,5.941,0,0,0-.908,1.906,8.853,8.853,0,0,0-.187,2.015,14.964,14.964,0,0,0,.191,3.317,5.031,5.031,0,0,0,1.578,2.866,6.922,6.922,0,0,0,2.817,1.219,2.537,2.537,0,0,0,1.567.044,2.584,2.584,0,0,0,.912-.769l2.557-2.941c1.71-1.975,3.488-3.992,5.834-5.147.735-.359,1.511-.63,2.248-.979a12.107,12.107,0,0,0,6.194-7.952c.21-.821.345-1.66.481-2.5l.37-2.3a.733.733,0,0,0,0-.351.756.756,0,0,0-.269-.319,44.559,44.559,0,0,1-4.988-4.706,11.523,11.523,0,0,0-1.13-1.294c-.529-.42-.49-.389-1.126,0A13.5,13.5,0,0,0,127.174,340.281Z" transform="translate(-111.742 -276.973)"/><path class="f" d="M468.077,390.454a9.81,9.81,0,0,1-.63,3.944,2.1,2.1,0,0,1-1.168,1.225,2.719,2.719,0,0,1-1.027.038,37.12,37.12,0,0,0-12.289.975c1.072-2.143.456-4.712.752-7.091.082-.649.231-1.288.288-1.939.21-2.311-.779-4.555-1.233-6.837a15.294,15.294,0,0,1,0-5.983,3.993,3.993,0,0,1,.515-1.439,3.378,3.378,0,0,1,1.181-1.027,9.91,9.91,0,0,1,5.62-.952c1.288.086,3.87-.036,4.944.756,1.174.868,1.546,3.782,1.864,5.128a43.391,43.391,0,0,1,.966,6.276A67.433,67.433,0,0,1,468.077,390.454Z" transform="translate(-380.216 -303.48)"/><path class="j" d="M59.98,436.03l7.563,5.042,34.036-1.261L79.1,436.03Z" transform="translate(-47.377 -344.405)"/><path class="c" d="M183.124,285.994c-1.242,1.095-2.294,2.385-3.471,3.551a47.754,47.754,0,0,1-5.273,4.317,3.925,3.925,0,0,1,2.731,2.752c.08.309.12.63.21.933a5.1,5.1,0,0,0,1.168,1.891c2.13,2.4,5.112,4.179,6.368,7.143a.66.66,0,0,0,.252.357.552.552,0,0,0,.326.038,4.453,4.453,0,0,0,2.731-1.927,20.14,20.14,0,0,0,3.572-6.286,11.2,11.2,0,0,0,.053-7.143,18.284,18.284,0,0,0-1.653-3.221l-1.63-2.714c-.284-.477-.645-1.445-1.2-1.681C186.1,283.488,183.9,285.223,183.124,285.994Z" transform="translate(-160.548 -234.432)"/><path class="c" d="M457.663,342.472l1.788,4.2a12.99,12.99,0,0,0-11.744,1.628,6.6,6.6,0,0,0-2.414,2.809,1.227,1.227,0,0,1-1.216-.477,2.439,2.439,0,0,1-.45-1.286,10.132,10.132,0,0,1,1.05-4.7,6.776,6.776,0,0,1,1.071-2,6.261,6.261,0,0,1,1.828-1.309,40.706,40.706,0,0,1,6.629-2.929,1.984,1.984,0,0,1,2.521.6C457.354,340.081,457.171,341.325,457.663,342.472Z" transform="translate(-373.205 -277.331)"/><path class="f" d="M130.673,413.068c.448.357.84.779,1.3,1.12a9.289,9.289,0,0,0,1.546.868l2.072,1a11.61,11.61,0,0,0,2.006.815c.887.237,1.817.26,2.708.481,1.124.277,2.151.855,3.259,1.189a3.768,3.768,0,0,0,3.328-.307c.578-.435,1.015-1.153,1.731-1.261a2.291,2.291,0,0,1,1.319.378l5.391,2.834a4.107,4.107,0,0,1,1.876,1.536,1.418,1.418,0,0,1-.676,2.025,7.386,7.386,0,0,1-.84.048.659.659,0,0,0-.618.477.958.958,0,0,0,.132.494,2.065,2.065,0,0,1,.032,1.756,1.256,1.256,0,0,1-1.525.63c.095.813-.79,1.382-1.578,1.6a14.269,14.269,0,0,1-6.126-.134,8.4,8.4,0,0,1-2.336-.63c-.349-.17-.672-.389-1.025-.546a7.316,7.316,0,0,0-3.128-.355,72.477,72.477,0,0,1-14.568-1.725,7.046,7.046,0,0,1-2.574-.84,4.771,4.771,0,0,1-1.775-4.664,14,14,0,0,1,1.992-4.845l1.124-1.981a2.551,2.551,0,0,1,.605-.8C125.977,410.965,129.257,411.929,130.673,413.068Z" transform="translate(-118.026 -335.32)"/><path class="i" d="M130.673,413.068c.448.357.84.779,1.3,1.12a9.289,9.289,0,0,0,1.546.868l2.072,1a11.61,11.61,0,0,0,2.006.815c.887.237,1.817.26,2.708.481,1.124.277,2.151.855,3.259,1.189a3.768,3.768,0,0,0,3.328-.307c.578-.435,1.015-1.153,1.731-1.261a2.291,2.291,0,0,1,1.319.378l5.391,2.834a4.107,4.107,0,0,1,1.876,1.536,1.418,1.418,0,0,1-.676,2.025,7.386,7.386,0,0,1-.84.048.659.659,0,0,0-.618.477.958.958,0,0,0,.132.494,2.065,2.065,0,0,1,.032,1.756,1.256,1.256,0,0,1-1.525.63c.095.813-.79,1.382-1.578,1.6a14.269,14.269,0,0,1-6.126-.134,8.4,8.4,0,0,1-2.336-.63c-.349-.17-.672-.389-1.025-.546a7.316,7.316,0,0,0-3.128-.355,72.477,72.477,0,0,1-14.568-1.725,7.046,7.046,0,0,1-2.574-.84,4.771,4.771,0,0,1-1.775-4.664,14,14,0,0,1,1.992-4.845l1.124-1.981a2.551,2.551,0,0,1,.605-.8C125.977,410.965,129.257,411.929,130.673,413.068Z" transform="translate(-118.026 -335.32)"/><path class="f" d="M314.3,433.03a34.158,34.158,0,0,1-3.494.964,20.692,20.692,0,0,0-3.162,1.693c-2.731,1.525-5.883,2.1-8.977,2.649a26.191,26.191,0,0,1-5.673.592,36.476,36.476,0,0,1-7.5-1.605,14.337,14.337,0,0,0-7.58-.353,8.532,8.532,0,0,0-5.568,5.343,12.306,12.306,0,0,0-.487,4.731c.517.38,1.24-.147,1.521-.725s.435-1.286.981-1.622c.948.322,1.179,1.584,1.96,2.208a3.54,3.54,0,0,0,1.758.582l3.193.454a2.612,2.612,0,0,0,2.219-.359c.271-.263.42-.63.668-.912a2.478,2.478,0,0,1,2.114-.584c2.361.235,4.576,1.767,6.921,1.4a13.116,13.116,0,0,0,2.326-.74c4.557-1.609,9.62-.63,14.362-1.553a32.052,32.052,0,0,0,5.271-1.628,10.66,10.66,0,0,0,2.679-1.328,5.639,5.639,0,0,0,2.177-5A5.719,5.719,0,0,0,318,433.534a7.144,7.144,0,0,0-1.3-1.116C315.853,432.047,315.023,432.692,314.3,433.03Z" transform="translate(-237.524 -351.651)"/><g class="k" transform="translate(45.278 31.925)"><path d="M349.419,222.975c-.351-.311-.437-.784-.74-1.128-.63-.729-1.9-.63-2.941-.483-1.809.254-3.992.313-5.114-.945-.485-.542-.7-1.261-1.292-1.712-1.382-1.05-3.761.025-5.284-.863-1.33-.775-1.244-2.574-2.353-3.572s-3.032-.868-4.538-.37a1.313,1.313,0,0,1-.815.092c-.477-.168-.443-.761-.326-1.2a25.613,25.613,0,0,1,2.273-6.185,13,13,0,0,0,1.145-2.151c.456-1.332.223-2.838.821-4.1a5.657,5.657,0,0,0-1.658,1.471c-.9,1.334-.548,3.032-1.051,4.513a13,13,0,0,1-1.145,2.151,25.616,25.616,0,0,0-2.273,6.185c-.118.437-.151,1.029.326,1.2a1.313,1.313,0,0,0,.815-.092c1.506-.5,3.42-.641,4.538.37s1.023,2.8,2.353,3.572c1.523.889,3.9-.185,5.284.863.592.45.807,1.17,1.292,1.712,1.13,1.261,3.3,1.2,5.114.945,1.038-.147,2.311-.246,2.941.483.3.345.389.817.74,1.128a1.929,1.929,0,0,0,2.4-.3,6.369,6.369,0,0,0,1-1.374A1.563,1.563,0,0,1,349.419,222.975Z" transform="translate(-324.055 -200.36)"/><path d="M461.586,289.828a5.97,5.97,0,0,0-.376.544,11.39,11.39,0,0,0,2.265-1.847,4.467,4.467,0,0,0,.42-.605A11.033,11.033,0,0,0,461.586,289.828Z" transform="translate(-432.394 -269.524)"/></g><path class="b" d="M556.48,446.53l.63,60.3,2.941-.42-.63-59.877Z" transform="translate(-439.565 -352.699)"/><path class="b" d="M640.48,498.53l.63,60.3,2.941-.42-.63-59.877Z" transform="translate(-505.917 -393.774)"/><path class="b" d="M998.269,577.464h0l-.013-1.158v-.689l-.111-10.606-.174-16.581L997.941,547H995l.015,1.378.092,8.881.04,3.845h0l.034,3.114.055,5.383.034,3.174h0v.336l.044,4.173.038,3.679.24-.265q.578-.645,1.13-1.311Z" transform="translate(-808.76 -442.248)"/><path class="c" d="M618.661,545.03l-1.681,2.513,1.681,11.448,14.286,3.91h23.11l13.866.838,6.605-4.521-1.143-7.765-5.042-6.423Z" transform="translate(-487.354 -430.504)"/><path class="b" d="M721.713,605.48l-.84,6.979s-4.412,13.684,31.094,12.845,29.413-3.631,29.413-3.631l-.21-8.1s1.237,3.832-16.808,3.313-34.876-2.2-34.876-2.2S723.184,615.81,721.713,605.48Z" transform="translate(-592.087 -488.441)"/><path class="l" d="M834.363,304.213a10.151,10.151,0,0,0-4.586,4.687,30.267,30.267,0,0,0-2.175,6.3,56.136,56.136,0,0,0-1.515,6.883,20.846,20.846,0,0,0,1.765,12.219,13.772,13.772,0,0,0,9.538,7.44,17.556,17.556,0,0,0,4.832.057,39.29,39.29,0,0,0,8.532-1.88c2.889-.977,5.9-2.481,7.181-5.252a11.744,11.744,0,0,0,.773-5.208,55.407,55.407,0,0,0-2.166-14.242,12.129,12.129,0,0,0-1.664-3.832,11.745,11.745,0,0,0-3.1-2.731C846.866,305.345,840.407,301.465,834.363,304.213Z" transform="translate(-675.155 -249.733)"/><path class="m" d="M834.363,304.213a10.151,10.151,0,0,0-4.586,4.687,30.267,30.267,0,0,0-2.175,6.3,56.136,56.136,0,0,0-1.515,6.883,20.846,20.846,0,0,0,1.765,12.219,13.772,13.772,0,0,0,9.538,7.44,17.556,17.556,0,0,0,4.832.057,39.29,39.29,0,0,0,8.532-1.88c2.889-.977,5.9-2.481,7.181-5.252a11.744,11.744,0,0,0,.773-5.208,55.407,55.407,0,0,0-2.166-14.242,12.129,12.129,0,0,0-1.664-3.832,11.745,11.745,0,0,0-3.1-2.731C846.866,305.345,840.407,301.465,834.363,304.213Z" transform="translate(-675.155 -249.733)"/><path class="c" d="M785.957,365.561a9.538,9.538,0,0,0,2.1,2.1c2,1.382,4.568,1.569,7,1.645,1.95.059,4.185-.053,5.408-1.574a6.3,6.3,0,0,0,1.021-2.41A106.9,106.9,0,0,0,804.4,349.4l5.563.019c2.408,10.309,2.21,21.026,2,31.613l-.3,15.438-3.584-.38c-8.511-.9-17.035-1.8-25.592-1.958a146.4,146.4,0,0,0-15.026.5l7.8-23.207a38.41,38.41,0,0,0,2.273-9.244c.342-4.6-.948-9.454.84-13.709a1.667,1.667,0,0,1,.649-.876,1.844,1.844,0,0,1,1.111-.086c.706.095,2.864,0,3.376.452.756.655.256.754-.01,1.811a22.1,22.1,0,0,0-.922,5.612A16.575,16.575,0,0,0,785.957,365.561Z" transform="translate(-629.025 -284.635)"/><path class="h" d="M958.622,387.7h0q1.406-1.866,2.649-3.864c-.42-.9-.882-1.777-1.25-2.7a27.093,27.093,0,0,1-1.206-4.38q-.164-.756-.326-1.513a99.386,99.386,0,0,1-2.511-16.61q-.031-.693-.04-1.387V355.52c.025-1.261.105-2.532.25-3.8.027-.248.059-.5.093-.744a1.064,1.064,0,0,1,.021-.162l14.286-.521h0l1.2-.044a4.4,4.4,0,0,0,2.38-.544c1.145-.786,1.279-2.4,1.261-3.782a56.129,56.129,0,0,0-1.185-10.41,15.508,15.508,0,0,0-3.051-7.187c-1.424-1.626-3.487-2.809-4.229-4.832a21.818,21.818,0,0,0-.7-2.3,7.154,7.154,0,0,0-1.5-1.8,25.073,25.073,0,0,1-4.811-6.664,21.059,21.059,0,0,0-2.885-4.79c-.055-.061-.109-.118-.166-.172a2.676,2.676,0,0,0-3.309-.708,4.236,4.236,0,0,0-.656.408h0a7.982,7.982,0,0,0-1.246,1.185,28.365,28.365,0,0,0-3.389,4.832,26.85,26.85,0,0,0-1.731,3.782,26.071,26.071,0,0,0-.935,3.151c-.181.792-.324,1.593-.437,2.4a58.275,58.275,0,0,0-.361,9.148c.063,2.807.187,5.62.441,8.416q.094,1.015.21,2.027.231,2,.572,3.992c.09.506.183,1.013.286,1.517.025.134.052.269.08.4l.013.057a34.131,34.131,0,0,1,.645,3.553q.025.225.038.448a17.3,17.3,0,0,1-.017,2.061c-.048.811-.124,1.62-.162,2.431a3.968,3.968,0,0,1-.015.42c-.01.41,0,.819,0,1.229a19.48,19.48,0,0,0,.349,2.918,18.874,18.874,0,0,0,1.817,5.135c.08.151.162.3.244.447,1.065,1.9,2.41,3.649,3.4,5.6a24.159,24.159,0,0,1,1.891,5.507q.21.943.4,1.891c.2,1.008.37,2.025.548,3.042.017.1.036.21.055.3.237,1.349.487,2.691.809,4.009.187.767.4,1.523.643,2.267Z" transform="translate(-769.113 -252.48)"/><path class="n" d="M850.75,574.646c0,.189-.013.378-.021.569a26.948,26.948,0,0,1-.254,2.754,17.921,17.921,0,0,1-.91,3.654,12.335,12.335,0,0,1-1.084,2.229,10.28,10.28,0,0,1-1.349,1.737c-1.261,1.311-3.076,1.729-4.832,2.282a11.9,11.9,0,0,0-2.33.952c-.132.074-.263.153-.389.237l-2.2,1.456a6.573,6.573,0,0,0-1.855,1.591,3.4,3.4,0,0,0-.21.355,8.054,8.054,0,0,0-.647,1.941c-1.143,4.761-2.288,9.526-3.072,14.358-.052.319-.1.641-.158.962l-.019.1a.519.519,0,0,0-.034-.069,126.438,126.438,0,0,1-17.459,8.923l-1.3-10.925a13.207,13.207,0,0,1-.134-2.685c.124-1.414.7-2.754.855-4.164a7.094,7.094,0,0,0-.75-4.007,4.382,4.382,0,0,1-.616-1.485.924.924,0,0,1,.79-1.08,1.941,1.941,0,0,0,.33-1.733,5.048,5.048,0,0,0-.294-.96,4.037,4.037,0,0,1-.5-2.731,1.021,1.021,0,0,0,.105-.525.086.086,0,0,0,0-.034c-.071-.235-.351-.338-.5-.538-.273-.372,0-.878.168-1.307a4.987,4.987,0,0,0,.281-1.431c.023-.271.04-.544.069-.813a8.181,8.181,0,0,1,.2-1.08,8.523,8.523,0,0,1,3.452-4.941c.817-.55,1.727-.952,2.561-1.471a23.451,23.451,0,0,0,2.441-1.891q2.776-2.311,5.771-4.357a72.9,72.9,0,0,1,6.664-4.046q.735-.4,1.471-.773.8-.42,1.611-.8c1.731-.826,3.7-.517,5.61.034.8.229,1.595.5,2.359.75a10.914,10.914,0,0,1,2.143.962,7.9,7.9,0,0,1,3.679,4.324.219.219,0,0,1,0,.036A11,11,0,0,1,850.75,574.646Z" transform="translate(-664.047 -455.99)"/><path class="g" d="M850.75,574.646c0,.189-.013.378-.021.569a26.948,26.948,0,0,1-.254,2.754,17.921,17.921,0,0,1-.91,3.654,12.335,12.335,0,0,1-1.084,2.229,10.28,10.28,0,0,1-1.349,1.737c-1.261,1.311-3.076,1.729-4.832,2.282a11.9,11.9,0,0,0-2.33.952c-.132.074-.263.153-.389.237l-2.2,1.456a6.573,6.573,0,0,0-1.855,1.591,3.4,3.4,0,0,0-.21.355,8.054,8.054,0,0,0-.647,1.941c-1.143,4.761-2.288,9.526-3.072,14.358-.052.319-.1.641-.158.962l-.019.1a.519.519,0,0,0-.034-.069,126.438,126.438,0,0,1-17.459,8.923l-1.3-10.925a13.207,13.207,0,0,1-.134-2.685c.124-1.414.7-2.754.855-4.164a7.094,7.094,0,0,0-.75-4.007,4.382,4.382,0,0,1-.616-1.485.924.924,0,0,1,.79-1.08,1.941,1.941,0,0,0,.33-1.733,5.048,5.048,0,0,0-.294-.96,4.037,4.037,0,0,1-.5-2.731,1.021,1.021,0,0,0,.105-.525.086.086,0,0,0,0-.034c-.071-.235-.351-.338-.5-.538-.273-.372,0-.878.168-1.307a4.987,4.987,0,0,0,.281-1.431c.023-.271.04-.544.069-.813a8.181,8.181,0,0,1,.2-1.08,8.523,8.523,0,0,1,3.452-4.941c.817-.55,1.727-.952,2.561-1.471a23.451,23.451,0,0,0,2.441-1.891q2.776-2.311,5.771-4.357a72.9,72.9,0,0,1,6.664-4.046q.735-.4,1.471-.773.8-.42,1.611-.8c1.731-.826,3.7-.517,5.61.034.8.229,1.595.5,2.359.75a10.914,10.914,0,0,1,2.143.962,7.9,7.9,0,0,1,3.679,4.324.219.219,0,0,1,0,.036A11,11,0,0,1,850.75,574.646Z" transform="translate(-664.047 -455.99)"/><path class="b" d="M898.79,446.648a.395.395,0,1,0-.71.345l-.21.1,6.265,12.841,1.132-.553L899,446.534Z" transform="translate(-732.036 -362.792)"/><circle class="l" cx="13.446" cy="13.446" r="13.446" transform="translate(161.14 43.513)"/><path class="h" d="M907.9,187.538a17.86,17.86,0,0,0-.475-3.17,18.619,18.619,0,0,0-4.719-9.181,18.424,18.424,0,0,0-.548-1.763.361.361,0,0,0-.015-.042,19.733,19.733,0,0,0-3.172-5.624,4.447,4.447,0,0,0-3.065-1.983,2.485,2.485,0,0,1-1.05-.113,1.89,1.89,0,0,1-.586-.6,5.5,5.5,0,0,0-5.328-1.994l-.13.027c-.073.015-.147.032-.21.05s-.177.05-.265.078q.145.24.284.485.374.666.693,1.361.265.58.49,1.179c-2.151.246-3.9,1.773-5.5,3.227l-3.769,3.42a.155.155,0,0,0-.019.019l-.109.105c-.027.027-.055.055-.08.084a.18.18,0,0,0-.027.029c-.031.034-.061.069-.09.105a1.587,1.587,0,0,0-.141.21.777.777,0,0,0-.055.1.207.207,0,0,0-.015.031.755.755,0,0,0-.036.088.027.027,0,0,0,0,.013.5.5,0,0,0-.015.053.63.63,0,0,0,.036.445l2.485.027h.292c.013.332.023.666.036,1a14.171,14.171,0,0,0-1.135.945,12.325,12.325,0,0,0-1.107,1.168,16.123,16.123,0,0,0-3.53,9.727v1.286c0,.21.019.42.036.63a1.574,1.574,0,0,0,.21.779.722.722,0,0,0,.059.076,1.45,1.45,0,0,0,.445.328l.181.088h0c.09.044.176.086.26.134.792.447,1.261,1.311,1.981,1.866.042.032.084.063.126.09l.095.063.059.038.08.046a1.719,1.719,0,0,0,.162.086h0l.1.05h.017c.084.038.168.074.254.105l.12.042.036.013c.034.01.069.023.105.031q.107.032.21.057l.21.046c.082.015.166.029.25.04l.124.017.126.013q.3.027.605.032h0a15.13,15.13,0,0,0,1.906-.132l5.362-.63a11.553,11.553,0,0,1,3.658-.034,24.1,24.1,0,0,1,2.941,1.036c.223.078.445.149.67.21.082.023.166.048.25.069l.116.029.269.065c.1.023.193.046.29.065.137.029.271.055.408.08.092.019.187.034.282.05h.019l.269.042h.065l.2.027c.1.015.193.027.292.038q.321.04.643.069c.347.034.7.059,1.05.08l.349.021.349.017,1.051.046h.193a5.419,5.419,0,0,0,1.307-.067c.076-.015.149-.032.223-.053s.134-.042.21-.067A3.6,3.6,0,0,0,907,192.219c.084-.158.162-.315.233-.477s.137-.326.2-.49c.074-.21.137-.41.191-.62.017-.057.031-.113.044-.172s.042-.174.059-.263c.052-.242.092-.485.122-.731a2.237,2.237,0,0,1,.027-.235c.019-.21.034-.405.042-.611v-.471C907.914,187.979,907.9,187.754,907.9,187.538Zm-5.387-12.543c-.17-.16-.345-.313-.521-.458a2.169,2.169,0,0,1,.519.458Z" transform="translate(-715.566 -138.902)"/><path class="h" d="M726.374,306.007c-1.582-.2-3.151-.889-4.712-.548a6.531,6.531,0,0,0-2.6,1.441,31.6,31.6,0,0,0-7.3,8.351,4.41,4.41,0,0,0-.674,1.58,4.186,4.186,0,0,0,.29,1.95c1.437,4.246,4.511,7.792,5.91,12.051,1.471,4.479.96,9.374-.124,13.963a58.348,58.348,0,0,1-6.479,16.114,9.193,9.193,0,0,1-1.492,2.042c-.765.735-1.792,1.261-2.246,2.223a9.967,9.967,0,0,0-.42,1.349c-.42,1.261-1.437,2.34-1.536,3.67a8.376,8.376,0,0,0,.7,2.941,8.105,8.105,0,0,1-.149,5.063c-1.065,2.92-3.851,5.576-3.042,8.578,1.8-.519,3.8-1.193,4.656-2.868a5.114,5.114,0,0,1,.956-1.731c1.011-.859,2.731-.082,3.8-.872a2.407,2.407,0,0,0,.479-2.777c-.361-.945-.983-1.777-1.26-2.75-.483-1.754.29-3.609.147-5.423-.067-.84-.326-1.645-.344-2.481a5.827,5.827,0,0,1,2.059-4.254,17.109,17.109,0,0,1,4.126-2.555l5.5-2.731c1.994-.987,4.179-2.191,4.832-4.317a8.74,8.74,0,0,0,.263-2.477c.187-12.713,3.372-25.169,6.538-37.483a46.411,46.411,0,0,1,1.723-5.656c.731-1.832,2.162-3.3,2.891-5C734.63,302.9,730.767,306.558,726.374,306.007Z" transform="translate(-577.593 -249.787)"/><path class="n" d="M793.418,575.816c.485,2.941.781,5.946,1.013,8.935a102.227,102.227,0,0,1-11.99,8.391c-.235.145-.473.288-.71.42l-.019.1a.537.537,0,0,0-.034-.069,3.163,3.163,0,0,0-1.58-1.559q-2.326-4.885-4.647-9.769a25.656,25.656,0,0,1-2.1-5.431.823.823,0,0,0-.025-.122c-.319-1.471-.393-3-.605-4.488a12.97,12.97,0,0,0-.574-2.509c-.252-.725-.6-1.429-.906-2.137a7.114,7.114,0,0,1-.71-2.7A1.766,1.766,0,0,0,770.4,564a2.287,2.287,0,0,0-.574-.555,2.187,2.187,0,0,1-.706-2c-1.261.065-1.971,1.42-2.477,2.569a14.011,14.011,0,0,1-1.8,3.151,5.977,5.977,0,0,1-1.992,1.658c-.069.034-.139.067-.21.1-1.754.773-3.8.5-5.7.151a10.694,10.694,0,0,1-4.717-1.716l-.143-.114a6.173,6.173,0,0,1-1.05-1.122,12.21,12.21,0,0,1-1.891-5.463c-.025-.181-.05-.361-.074-.542a20.212,20.212,0,0,1-.158-4.093c.025-.336.061-.672.105-1.006.029-.21.061-.437.1-.655a.062.062,0,0,1,0-.019c.055-.347.113-.7.172-1.05a9.653,9.653,0,0,1,1.051-3.439,6.514,6.514,0,0,1,1.546-1.656c.227-.179.46-.349.7-.513.383-.265.775-.517,1.174-.754a20.31,20.31,0,0,1,3.152-1.534c.26-.1.525-.2.79-.286a6.2,6.2,0,0,1,3.21-.254,16.892,16.892,0,0,0,2.874.168,72.423,72.423,0,0,0,7.4-.824c3.416-.42,7.087-.471,10.066,1.261.143.082.281.168.42.258a12.448,12.448,0,0,1,3.612,3.818c.21.317.393.643.574.973a24.768,24.768,0,0,1,1.128,2.332,2.9,2.9,0,0,1,.313,1.26,1.647,1.647,0,0,1-.034.248c-.057.3-.17.588-.21.891-.132,1.145.84,2.1,1.2,3.191a15.642,15.642,0,0,1,.342,2.219,11.538,11.538,0,0,0,1.168,2.941,36.778,36.778,0,0,1,1.87,4.7c.366,1.12.679,2.256.954,3.4q.134.552.254,1.107C793.065,573.818,793.252,574.814,793.418,575.816Z" transform="translate(-614.34 -439.842)"/><path class="b" d="M639.069,455.585v1.471l-.271,0-.3,0-3.378-.042-8.324-.109-2.336-.029-.605-.008-3.507-.044-4.941-.065-10.484-.137-18.192-.235-6.565-.084-2.635-.034-2.424-.032-1.511-.021-1.431-.019-10.608-.137-2.941-.038-.641-.008-.416-1.074-3.023-7.8-.553-1.424.42-1.681,1.891,1.261,1.164.145,19.163,2.382,3.6.448,7.627.95,7.471.929,2.929.363,17.331,2.156,4.843.6,4.009.5,14.253,1.773Z" transform="translate(-437.59 -350.724)"/><path class="e" d="M555.98,444.03l3.782,9.875,80.887,1.681V444.87Z" transform="translate(-439.17 -350.724)"/><path class="b" d="M575.98,496.03l.63,60.3,2.941-.42-.63-59.877Z" transform="translate(-454.968 -391.799)"/><path class="b" d="M1052.251,550.959h-.3a66.5,66.5,0,0,1-2.422,11.091l-.956-11.135-.04-.475,3.534-.408.118-.013Z" transform="translate(-851.043 -444.633)"/><path class="j" d="M751.318,457.022l-30.779.63L710.98,454.5l25.632-1.471Z" transform="translate(-561.605 -357.833)"/><path class="l" d="M821.291,457.383a2.064,2.064,0,0,0-.841.6,2.22,2.22,0,0,0-.313.954l-.517,3.082a1.364,1.364,0,0,0,.04.855c.135.258.525.393.721.179a2.767,2.767,0,0,0,.378,1.737,1.212,1.212,0,0,0,1.582.408,1.025,1.025,0,0,0,1.544.24c-.3.1-.319.557-.107.788a1.372,1.372,0,0,0,.857.342,20.964,20.964,0,0,0,10.9-1.372c.326-.134-.532-4.149-.618-4.561-.21-.969-.315-2.151-1.132-2.8-1.954-1.559-5.425-1.866-7.8-1.681A13.446,13.446,0,0,0,821.291,457.383Z" transform="translate(-670.187 -370.447)"/><path class="g" d="M891.3,453.063c-7.6.145-15.356.269-22.608-2.006a15.338,15.338,0,0,1-.139,8.166l35.531,2.941c1.506.124,7.753.83,9.221.475s-12.322-4.9-11.765-6.3c1.532-3.872,6.662-6.141,2.967-6.286C899.839,449.865,896,452.975,891.3,453.063Z" transform="translate(-708.876 -365.661)"/><path class="h" d="M892.3,455.063c-7.6.145-15.356.269-22.608-2.006a15.338,15.338,0,0,1-.139,8.166l35.531,2.941c1.506.124,7.753.84,9.221.475s1.124-2.166,1.681-3.572c1.532-3.872-6.784-8.872-10.48-9.017C900.839,451.865,897,454.975,892.3,455.063Z" transform="translate(-709.666 -367.24)"/><path class="l" d="M866.47,464.383a2.057,2.057,0,0,1,.84.6,2.25,2.25,0,0,1,.315.954l.517,3.082a1.378,1.378,0,0,1-.04.855c-.134.258-.527.393-.721.179a2.782,2.782,0,0,1-.378,1.737,1.214,1.214,0,0,1-1.584.408,1.025,1.025,0,0,1-1.544.24c.3.1.321.557.109.788a1.378,1.378,0,0,1-.859.342,20.957,20.957,0,0,1-10.9-1.372c-.326-.134.529-4.149.618-4.561.21-.969.315-2.151,1.132-2.8,1.952-1.559,5.425-1.866,7.805-1.681A13.446,13.446,0,0,1,866.47,464.383Z" transform="translate(-695.921 -375.976)"/><path class="h" d="M671.761,374.344a13.452,13.452,0,0,0-1.847,2.866c-.859,2-.733,4.265-.59,6.437a3.756,3.756,0,0,0,.42,1.8,3.034,3.034,0,0,0,1.1.935,15.524,15.524,0,0,0,6.03,1.574q4.777.529,9.589.645c7.946.193,16.013-.456,23.753,1.345a5.95,5.95,0,0,1-.42-5.042,17.169,17.169,0,0,1,2.578-4.528c-3.542-1.122-7.341.63-11.051.456-3.809-.179-7.334-2.38-11.148-2.378a10.142,10.142,0,0,1-2.45-.095,2.04,2.04,0,0,1-1.641-1.616,2.349,2.349,0,0,0,2.4-1.595c.42-.954.5-2.032.9-2.992,1.015-2.389,3.756-3.5,5.462-5.462a1.339,1.339,0,0,0,.095-2.03c-1.418-1.891-3.555-2.941-5.33-4.412-.618-.513-1.864-2.445-2.557-2.624-1.286-.33-2.376,1.527-3.212,2.433Q677.512,366.938,671.761,374.344Z" transform="translate(-551.426 -292.629)"/><path class="o" d="M882.39,434.81A6.953,6.953,0,0,1,883.8,436.2a2.4,2.4,0,0,1,.439,1.878,2.807,2.807,0,0,1,1.75-2.906Z" transform="translate(-719.808 -353.629)"/><g class="k" transform="translate(161.423 24.164)"><path d="M932.336,165.342a18.258,18.258,0,0,0-.853-1.922,5.148,5.148,0,0,0-.613.158,17.806,17.806,0,0,1,.973,1.855A3.52,3.52,0,0,1,932.336,165.342Z" transform="translate(-919.526 -163.42)"/><path d="M995.87,212c.057.046.111.1.166.147a.291.291,0,0,0-.015-.04Q995.95,212.055,995.87,212Z" transform="translate(-970.87 -201.794)"/><path d="M893.334,211.582c.109-.086.21-.176.328-.261l-.034-1-2.244-.023c-.363.334-.75.813-.536,1.261Z" transform="translate(-887.865 -200.451)"/><path d="M906.877,281.494a3.588,3.588,0,0,1-1.763,1.742,4.779,4.779,0,0,1-1.924.181,22.5,22.5,0,0,1-6.559-.922,23.168,23.168,0,0,0-2.941-1.038,11.492,11.492,0,0,0-3.658.036l-5.362.63c-1.582.185-3.345.324-4.607-.647-.723-.555-1.189-1.418-1.981-1.864a2.518,2.518,0,0,1-.948-.63,1.573,1.573,0,0,1-.21-.779c-.017-.221-.027-.441-.036-.662a17.767,17.767,0,0,0,.036,1.922,1.573,1.573,0,0,0,.21.779,2.518,2.518,0,0,0,.948.63c.792.445,1.261,1.309,1.981,1.864,1.261.971,3.025.84,4.607.647l5.362-.63a11.492,11.492,0,0,1,3.658-.036,23.776,23.776,0,0,1,2.941,1.038,22.256,22.256,0,0,0,6.559.922,4.817,4.817,0,0,0,1.924-.181,3.588,3.588,0,0,0,1.763-1.742,8.917,8.917,0,0,0,.908-4.717A8.2,8.2,0,0,1,906.877,281.494Z" transform="translate(-876.877 -253.564)"/></g><path class="g" d="M937.56,179l2.941,2.731S937.98,180.681,937.56,179Z" transform="translate(-763.387 -151.563)"/></g></svg>